G04 EAGLE Gerber X2 export*
%TF.Part,Single*%
%TF.FileFunction,Copper,L2,Bot,Mixed*%
%TF.FilePolarity,Positive*%
%TF.GenerationSoftware,Autodesk,EAGLE,9.1.3*%
%TF.CreationDate,2018-12-14T10:31:57Z*%
G75*
%MOMM*%
%FSLAX34Y34*%
%LPD*%
%AMOC8*
5,1,8,0,0,1.08239X$1,22.5*%
G01*
%ADD10C,1.879600*%
%ADD11C,1.500000*%
%ADD12C,0.812800*%

G36*
X542928Y60967D02*
X542928Y60967D01*
X543004Y60965D01*
X543173Y60987D01*
X543344Y61001D01*
X543418Y61019D01*
X543493Y61029D01*
X543657Y61078D01*
X543823Y61119D01*
X543892Y61149D01*
X543966Y61171D01*
X544119Y61247D01*
X544276Y61314D01*
X544340Y61355D01*
X544409Y61388D01*
X544548Y61487D01*
X544692Y61579D01*
X544749Y61630D01*
X544811Y61674D01*
X544932Y61794D01*
X545060Y61908D01*
X545108Y61967D01*
X545162Y62021D01*
X545263Y62159D01*
X545370Y62292D01*
X545407Y62358D01*
X545452Y62419D01*
X545529Y62572D01*
X545614Y62720D01*
X545640Y62792D01*
X545675Y62860D01*
X545726Y63023D01*
X545785Y63183D01*
X545800Y63258D01*
X545823Y63330D01*
X545835Y63435D01*
X545880Y63667D01*
X545887Y63903D01*
X545899Y64008D01*
X545899Y676912D01*
X545893Y676988D01*
X545895Y677064D01*
X545873Y677233D01*
X545859Y677404D01*
X545841Y677478D01*
X545831Y677553D01*
X545782Y677717D01*
X545741Y677883D01*
X545711Y677952D01*
X545689Y678026D01*
X545613Y678179D01*
X545546Y678336D01*
X545505Y678400D01*
X545472Y678469D01*
X545373Y678608D01*
X545281Y678752D01*
X545230Y678809D01*
X545186Y678871D01*
X545066Y678992D01*
X544952Y679120D01*
X544893Y679168D01*
X544839Y679222D01*
X544701Y679323D01*
X544568Y679430D01*
X544502Y679467D01*
X544441Y679512D01*
X544288Y679589D01*
X544140Y679674D01*
X544068Y679700D01*
X544000Y679735D01*
X543837Y679786D01*
X543677Y679845D01*
X543602Y679860D01*
X543530Y679883D01*
X543425Y679895D01*
X543193Y679940D01*
X542957Y679947D01*
X542852Y679959D01*
X44792Y679959D01*
X44754Y679956D01*
X44716Y679958D01*
X44508Y679936D01*
X44301Y679919D01*
X44264Y679910D01*
X44226Y679906D01*
X44024Y679851D01*
X43822Y679801D01*
X43787Y679786D01*
X43750Y679775D01*
X43560Y679688D01*
X43368Y679606D01*
X43336Y679586D01*
X43302Y679570D01*
X43129Y679453D01*
X42952Y679341D01*
X42924Y679316D01*
X42892Y679294D01*
X42740Y679151D01*
X42585Y679012D01*
X42561Y678983D01*
X42533Y678957D01*
X42405Y678790D01*
X42275Y678628D01*
X42256Y678596D01*
X42233Y678565D01*
X42134Y678381D01*
X42031Y678200D01*
X42017Y678164D01*
X41999Y678130D01*
X41932Y677933D01*
X41859Y677737D01*
X41852Y677700D01*
X41839Y677664D01*
X41804Y677457D01*
X41764Y677253D01*
X41763Y677215D01*
X41757Y677177D01*
X41755Y676968D01*
X41749Y676760D01*
X41754Y676722D01*
X41754Y676684D01*
X41786Y676477D01*
X41813Y676271D01*
X41824Y676234D01*
X41830Y676197D01*
X41896Y675998D01*
X41956Y675799D01*
X41973Y675764D01*
X41985Y675728D01*
X42081Y675542D01*
X42173Y675355D01*
X42195Y675324D01*
X42212Y675290D01*
X42271Y675218D01*
X42458Y674953D01*
X42579Y674831D01*
X42638Y674757D01*
X45364Y672031D01*
X47125Y667780D01*
X47125Y663180D01*
X45364Y658929D01*
X42111Y655676D01*
X37860Y653915D01*
X33260Y653915D01*
X31330Y654714D01*
X31123Y654781D01*
X30916Y654852D01*
X30888Y654857D01*
X30861Y654866D01*
X30646Y654898D01*
X30430Y654935D01*
X30401Y654935D01*
X30373Y654939D01*
X30155Y654936D01*
X29936Y654938D01*
X29908Y654933D01*
X29880Y654933D01*
X29665Y654895D01*
X29449Y654861D01*
X29422Y654852D01*
X29394Y654847D01*
X29188Y654775D01*
X28980Y654707D01*
X28955Y654694D01*
X28928Y654684D01*
X28737Y654580D01*
X28543Y654479D01*
X28524Y654464D01*
X28495Y654448D01*
X28106Y654146D01*
X28051Y654087D01*
X28010Y654054D01*
X14101Y640145D01*
X14027Y640059D01*
X13946Y639978D01*
X13868Y639871D01*
X13782Y639770D01*
X13723Y639672D01*
X13656Y639579D01*
X13596Y639461D01*
X13527Y639347D01*
X13485Y639241D01*
X13433Y639139D01*
X13393Y639012D01*
X13344Y638889D01*
X13319Y638778D01*
X13285Y638668D01*
X13275Y638575D01*
X13237Y638407D01*
X13219Y638083D01*
X13209Y637991D01*
X13209Y319589D01*
X13218Y319476D01*
X13217Y319361D01*
X13238Y319230D01*
X13249Y319098D01*
X13276Y318987D01*
X13294Y318874D01*
X13335Y318748D01*
X13367Y318619D01*
X13412Y318514D01*
X13448Y318405D01*
X13510Y318287D01*
X13562Y318165D01*
X13623Y318069D01*
X13676Y317968D01*
X13735Y317894D01*
X13827Y317749D01*
X14043Y317507D01*
X14101Y317435D01*
X18664Y312872D01*
X18772Y312780D01*
X18874Y312680D01*
X18960Y312620D01*
X19040Y312553D01*
X19162Y312479D01*
X19278Y312397D01*
X19372Y312352D01*
X19462Y312298D01*
X19595Y312245D01*
X19723Y312183D01*
X19823Y312154D01*
X19920Y312115D01*
X20059Y312084D01*
X20196Y312044D01*
X20300Y312031D01*
X20402Y312008D01*
X20544Y312000D01*
X20686Y311983D01*
X20790Y311986D01*
X20894Y311981D01*
X21036Y311996D01*
X21179Y312001D01*
X21281Y312022D01*
X21385Y312033D01*
X21522Y312071D01*
X21662Y312099D01*
X21760Y312136D01*
X21861Y312163D01*
X21990Y312223D01*
X22124Y312273D01*
X22214Y312326D01*
X22309Y312369D01*
X22427Y312449D01*
X22551Y312520D01*
X22632Y312586D01*
X22718Y312645D01*
X22822Y312742D01*
X22933Y312832D01*
X23002Y312911D01*
X23078Y312982D01*
X23165Y313095D01*
X23259Y313202D01*
X23315Y313291D01*
X23378Y313374D01*
X23446Y313499D01*
X23521Y313620D01*
X23562Y313716D01*
X23611Y313809D01*
X23658Y313944D01*
X23713Y314075D01*
X23737Y314176D01*
X23771Y314275D01*
X23795Y314416D01*
X23829Y314554D01*
X23836Y314658D01*
X23854Y314762D01*
X23855Y314904D01*
X23866Y315046D01*
X23856Y315150D01*
X23857Y315255D01*
X23835Y315396D01*
X23822Y315538D01*
X23801Y315613D01*
X23780Y315742D01*
X23645Y316155D01*
X23634Y316193D01*
X22097Y319902D01*
X22097Y325258D01*
X24147Y330206D01*
X27066Y333125D01*
X27115Y333183D01*
X27171Y333236D01*
X27275Y333371D01*
X27386Y333501D01*
X27425Y333566D01*
X27471Y333627D01*
X27552Y333777D01*
X27640Y333924D01*
X27668Y333995D01*
X27704Y334062D01*
X27760Y334223D01*
X27823Y334382D01*
X27840Y334456D01*
X27864Y334528D01*
X27893Y334697D01*
X27930Y334864D01*
X27934Y334940D01*
X27947Y335015D01*
X27948Y335186D01*
X27958Y335356D01*
X27950Y335432D01*
X27950Y335508D01*
X27924Y335677D01*
X27905Y335847D01*
X27885Y335920D01*
X27873Y335995D01*
X27820Y336158D01*
X27775Y336322D01*
X27743Y336392D01*
X27719Y336464D01*
X27640Y336615D01*
X27569Y336771D01*
X27527Y336834D01*
X27491Y336902D01*
X27426Y336984D01*
X27294Y337180D01*
X27132Y337352D01*
X27066Y337435D01*
X24147Y340354D01*
X22097Y345302D01*
X22097Y350658D01*
X24147Y355606D01*
X27066Y358525D01*
X27115Y358583D01*
X27171Y358636D01*
X27275Y358771D01*
X27386Y358901D01*
X27425Y358966D01*
X27471Y359027D01*
X27552Y359177D01*
X27640Y359324D01*
X27668Y359395D01*
X27704Y359462D01*
X27760Y359623D01*
X27823Y359782D01*
X27840Y359856D01*
X27864Y359928D01*
X27893Y360097D01*
X27930Y360264D01*
X27934Y360340D01*
X27947Y360415D01*
X27948Y360586D01*
X27958Y360756D01*
X27950Y360832D01*
X27950Y360908D01*
X27924Y361077D01*
X27905Y361247D01*
X27885Y361320D01*
X27873Y361395D01*
X27820Y361558D01*
X27775Y361722D01*
X27743Y361792D01*
X27719Y361864D01*
X27640Y362015D01*
X27569Y362171D01*
X27527Y362234D01*
X27491Y362302D01*
X27426Y362384D01*
X27294Y362580D01*
X27132Y362752D01*
X27066Y362835D01*
X24147Y365754D01*
X22097Y370702D01*
X22097Y376058D01*
X24147Y381006D01*
X27066Y383925D01*
X27115Y383983D01*
X27171Y384036D01*
X27275Y384171D01*
X27386Y384301D01*
X27425Y384366D01*
X27471Y384427D01*
X27552Y384577D01*
X27640Y384724D01*
X27668Y384795D01*
X27704Y384862D01*
X27760Y385023D01*
X27823Y385182D01*
X27840Y385256D01*
X27864Y385328D01*
X27893Y385497D01*
X27930Y385664D01*
X27934Y385740D01*
X27947Y385815D01*
X27948Y385986D01*
X27958Y386156D01*
X27950Y386232D01*
X27950Y386308D01*
X27924Y386477D01*
X27905Y386647D01*
X27885Y386720D01*
X27873Y386795D01*
X27820Y386958D01*
X27775Y387122D01*
X27743Y387192D01*
X27719Y387264D01*
X27640Y387415D01*
X27569Y387571D01*
X27527Y387634D01*
X27491Y387702D01*
X27426Y387784D01*
X27294Y387980D01*
X27132Y388152D01*
X27066Y388235D01*
X24147Y391154D01*
X22097Y396102D01*
X22097Y401458D01*
X24147Y406406D01*
X27934Y410193D01*
X32882Y412243D01*
X38238Y412243D01*
X43186Y410193D01*
X46973Y406406D01*
X49023Y401458D01*
X49023Y396102D01*
X46973Y391154D01*
X44054Y388235D01*
X44005Y388177D01*
X43949Y388125D01*
X43845Y387989D01*
X43734Y387859D01*
X43695Y387793D01*
X43649Y387733D01*
X43568Y387583D01*
X43480Y387436D01*
X43452Y387366D01*
X43416Y387298D01*
X43360Y387137D01*
X43297Y386978D01*
X43280Y386904D01*
X43256Y386832D01*
X43227Y386663D01*
X43190Y386497D01*
X43186Y386420D01*
X43173Y386345D01*
X43172Y386174D01*
X43162Y386004D01*
X43170Y385928D01*
X43170Y385852D01*
X43196Y385683D01*
X43215Y385513D01*
X43235Y385440D01*
X43247Y385365D01*
X43300Y385202D01*
X43345Y385038D01*
X43377Y384968D01*
X43401Y384896D01*
X43480Y384744D01*
X43551Y384589D01*
X43593Y384526D01*
X43629Y384458D01*
X43694Y384376D01*
X43826Y384180D01*
X43988Y384008D01*
X44054Y383925D01*
X46973Y381006D01*
X49023Y376058D01*
X49023Y370702D01*
X46973Y365754D01*
X44054Y362835D01*
X44005Y362777D01*
X43949Y362725D01*
X43845Y362589D01*
X43734Y362459D01*
X43695Y362393D01*
X43649Y362333D01*
X43568Y362183D01*
X43480Y362036D01*
X43452Y361966D01*
X43416Y361898D01*
X43360Y361737D01*
X43297Y361578D01*
X43280Y361504D01*
X43256Y361432D01*
X43227Y361263D01*
X43190Y361097D01*
X43186Y361020D01*
X43173Y360945D01*
X43172Y360774D01*
X43162Y360604D01*
X43170Y360528D01*
X43170Y360452D01*
X43196Y360283D01*
X43215Y360113D01*
X43235Y360040D01*
X43247Y359965D01*
X43300Y359802D01*
X43345Y359638D01*
X43377Y359568D01*
X43401Y359496D01*
X43480Y359344D01*
X43551Y359189D01*
X43593Y359126D01*
X43629Y359058D01*
X43694Y358976D01*
X43826Y358780D01*
X43988Y358608D01*
X44054Y358525D01*
X46973Y355606D01*
X48191Y352666D01*
X48273Y352505D01*
X48349Y352341D01*
X48386Y352286D01*
X48416Y352227D01*
X48523Y352081D01*
X48624Y351932D01*
X48670Y351883D01*
X48709Y351830D01*
X48839Y351703D01*
X48962Y351572D01*
X49015Y351532D01*
X49062Y351485D01*
X49210Y351381D01*
X49353Y351272D01*
X49412Y351240D01*
X49466Y351202D01*
X49629Y351124D01*
X49788Y351039D01*
X49851Y351017D01*
X49911Y350988D01*
X50084Y350937D01*
X50255Y350879D01*
X50320Y350867D01*
X50384Y350849D01*
X50563Y350826D01*
X50741Y350796D01*
X50808Y350796D01*
X50874Y350787D01*
X51053Y350794D01*
X51234Y350793D01*
X51300Y350803D01*
X51367Y350806D01*
X51543Y350842D01*
X51722Y350870D01*
X51785Y350890D01*
X51850Y350904D01*
X52019Y350967D01*
X52190Y351024D01*
X52249Y351055D01*
X52312Y351078D01*
X52468Y351168D01*
X52628Y351252D01*
X52669Y351285D01*
X52739Y351325D01*
X53121Y351637D01*
X53143Y351662D01*
X53161Y351677D01*
X122395Y420911D01*
X125383Y422149D01*
X437331Y422149D01*
X437444Y422158D01*
X437559Y422157D01*
X437690Y422178D01*
X437822Y422189D01*
X437933Y422216D01*
X438046Y422234D01*
X438172Y422275D01*
X438301Y422307D01*
X438406Y422352D01*
X438515Y422388D01*
X438633Y422450D01*
X438755Y422502D01*
X438851Y422563D01*
X438952Y422616D01*
X439026Y422675D01*
X439171Y422767D01*
X439413Y422983D01*
X439485Y423041D01*
X486279Y469835D01*
X486353Y469921D01*
X486434Y470002D01*
X486512Y470109D01*
X486598Y470210D01*
X486657Y470308D01*
X486724Y470401D01*
X486784Y470519D01*
X486853Y470633D01*
X486895Y470739D01*
X486947Y470841D01*
X486987Y470968D01*
X487036Y471091D01*
X487061Y471202D01*
X487095Y471312D01*
X487105Y471405D01*
X487143Y471573D01*
X487161Y471897D01*
X487171Y471989D01*
X487171Y628997D01*
X488409Y631985D01*
X491124Y634700D01*
X503163Y646739D01*
X503237Y646825D01*
X503318Y646906D01*
X503396Y647013D01*
X503482Y647114D01*
X503541Y647212D01*
X503608Y647305D01*
X503668Y647423D01*
X503737Y647537D01*
X503779Y647643D01*
X503831Y647745D01*
X503871Y647872D01*
X503920Y647995D01*
X503945Y648106D01*
X503979Y648215D01*
X503989Y648309D01*
X504027Y648477D01*
X504045Y648801D01*
X504055Y648893D01*
X504055Y650000D01*
X505816Y654251D01*
X509069Y657504D01*
X513320Y659265D01*
X517920Y659265D01*
X522171Y657504D01*
X525424Y654251D01*
X527185Y650000D01*
X527185Y645400D01*
X525424Y641149D01*
X522171Y637896D01*
X517920Y636135D01*
X516813Y636135D01*
X516700Y636126D01*
X516585Y636127D01*
X516454Y636106D01*
X516322Y636095D01*
X516211Y636068D01*
X516098Y636050D01*
X515972Y636009D01*
X515843Y635977D01*
X515738Y635932D01*
X515629Y635896D01*
X515511Y635834D01*
X515389Y635782D01*
X515293Y635721D01*
X515192Y635668D01*
X515118Y635609D01*
X514973Y635517D01*
X514731Y635301D01*
X514659Y635243D01*
X512760Y633345D01*
X512736Y633316D01*
X512707Y633290D01*
X512576Y633128D01*
X512441Y632969D01*
X512421Y632936D01*
X512397Y632906D01*
X512295Y632726D01*
X512186Y632546D01*
X512172Y632511D01*
X512153Y632478D01*
X512081Y632282D01*
X512003Y632088D01*
X511995Y632051D01*
X511982Y632015D01*
X511942Y631810D01*
X511897Y631606D01*
X511894Y631568D01*
X511887Y631531D01*
X511881Y631323D01*
X511869Y631114D01*
X511873Y631076D01*
X511872Y631038D01*
X511899Y630831D01*
X511921Y630623D01*
X511931Y630587D01*
X511936Y630549D01*
X511997Y630349D01*
X512052Y630148D01*
X512068Y630113D01*
X512079Y630076D01*
X512170Y629889D01*
X512257Y629699D01*
X512279Y629667D01*
X512296Y629633D01*
X512416Y629463D01*
X512533Y629290D01*
X512559Y629262D01*
X512581Y629231D01*
X512728Y629082D01*
X512871Y628930D01*
X512901Y628907D01*
X512928Y628880D01*
X513096Y628757D01*
X513262Y628630D01*
X513296Y628612D01*
X513327Y628590D01*
X513513Y628496D01*
X513697Y628397D01*
X513733Y628385D01*
X513767Y628367D01*
X513966Y628305D01*
X514164Y628237D01*
X514201Y628231D01*
X514237Y628219D01*
X514330Y628209D01*
X514650Y628154D01*
X514822Y628153D01*
X514915Y628143D01*
X520838Y628143D01*
X525786Y626093D01*
X529573Y622306D01*
X531623Y617358D01*
X531623Y612002D01*
X529573Y607054D01*
X526654Y604135D01*
X526605Y604077D01*
X526549Y604024D01*
X526445Y603889D01*
X526334Y603759D01*
X526295Y603694D01*
X526249Y603633D01*
X526168Y603483D01*
X526080Y603336D01*
X526052Y603265D01*
X526016Y603198D01*
X525960Y603037D01*
X525897Y602878D01*
X525880Y602804D01*
X525856Y602732D01*
X525827Y602563D01*
X525790Y602396D01*
X525786Y602320D01*
X525773Y602245D01*
X525772Y602074D01*
X525762Y601904D01*
X525770Y601828D01*
X525770Y601752D01*
X525796Y601583D01*
X525815Y601413D01*
X525835Y601340D01*
X525847Y601265D01*
X525900Y601102D01*
X525945Y600938D01*
X525977Y600868D01*
X526001Y600796D01*
X526080Y600645D01*
X526151Y600489D01*
X526193Y600426D01*
X526229Y600358D01*
X526294Y600276D01*
X526426Y600080D01*
X526588Y599908D01*
X526654Y599825D01*
X529573Y596906D01*
X531623Y591958D01*
X531623Y586602D01*
X529573Y581654D01*
X526654Y578735D01*
X526605Y578677D01*
X526549Y578624D01*
X526445Y578489D01*
X526334Y578359D01*
X526295Y578294D01*
X526249Y578233D01*
X526168Y578083D01*
X526080Y577936D01*
X526052Y577865D01*
X526016Y577798D01*
X525960Y577637D01*
X525897Y577478D01*
X525880Y577404D01*
X525856Y577332D01*
X525827Y577163D01*
X525790Y576996D01*
X525786Y576920D01*
X525773Y576845D01*
X525772Y576674D01*
X525762Y576504D01*
X525770Y576428D01*
X525770Y576352D01*
X525796Y576183D01*
X525815Y576013D01*
X525835Y575940D01*
X525847Y575865D01*
X525900Y575702D01*
X525945Y575538D01*
X525977Y575468D01*
X526001Y575396D01*
X526080Y575245D01*
X526151Y575089D01*
X526193Y575026D01*
X526229Y574958D01*
X526294Y574876D01*
X526426Y574680D01*
X526588Y574508D01*
X526654Y574425D01*
X529573Y571506D01*
X531623Y566558D01*
X531623Y561202D01*
X529573Y556254D01*
X526654Y553335D01*
X526605Y553277D01*
X526549Y553224D01*
X526445Y553089D01*
X526334Y552959D01*
X526295Y552894D01*
X526249Y552833D01*
X526168Y552683D01*
X526080Y552536D01*
X526052Y552465D01*
X526016Y552398D01*
X525960Y552237D01*
X525897Y552078D01*
X525880Y552004D01*
X525856Y551932D01*
X525827Y551763D01*
X525790Y551596D01*
X525786Y551520D01*
X525773Y551445D01*
X525772Y551274D01*
X525762Y551104D01*
X525770Y551028D01*
X525770Y550952D01*
X525796Y550783D01*
X525815Y550613D01*
X525835Y550540D01*
X525847Y550465D01*
X525900Y550302D01*
X525945Y550138D01*
X525977Y550068D01*
X526001Y549996D01*
X526080Y549845D01*
X526151Y549689D01*
X526193Y549626D01*
X526229Y549558D01*
X526294Y549476D01*
X526426Y549280D01*
X526588Y549108D01*
X526654Y549025D01*
X529573Y546106D01*
X531623Y541158D01*
X531623Y535802D01*
X529573Y530854D01*
X526654Y527935D01*
X526605Y527877D01*
X526549Y527824D01*
X526445Y527689D01*
X526334Y527559D01*
X526295Y527494D01*
X526249Y527433D01*
X526168Y527283D01*
X526080Y527136D01*
X526052Y527065D01*
X526016Y526998D01*
X525960Y526837D01*
X525897Y526678D01*
X525880Y526604D01*
X525856Y526532D01*
X525827Y526363D01*
X525790Y526196D01*
X525786Y526120D01*
X525773Y526045D01*
X525772Y525874D01*
X525762Y525704D01*
X525770Y525628D01*
X525770Y525552D01*
X525796Y525383D01*
X525815Y525213D01*
X525835Y525140D01*
X525847Y525065D01*
X525900Y524902D01*
X525945Y524738D01*
X525977Y524668D01*
X526001Y524596D01*
X526080Y524445D01*
X526151Y524289D01*
X526193Y524226D01*
X526229Y524158D01*
X526294Y524076D01*
X526426Y523880D01*
X526588Y523708D01*
X526654Y523625D01*
X529573Y520706D01*
X531623Y515758D01*
X531623Y510402D01*
X529573Y505454D01*
X526654Y502535D01*
X526605Y502477D01*
X526549Y502424D01*
X526445Y502289D01*
X526334Y502159D01*
X526295Y502094D01*
X526249Y502033D01*
X526168Y501883D01*
X526080Y501736D01*
X526052Y501665D01*
X526016Y501598D01*
X525960Y501437D01*
X525897Y501278D01*
X525880Y501204D01*
X525856Y501132D01*
X525827Y500963D01*
X525790Y500796D01*
X525786Y500720D01*
X525773Y500645D01*
X525772Y500474D01*
X525762Y500304D01*
X525770Y500228D01*
X525770Y500152D01*
X525796Y499983D01*
X525815Y499813D01*
X525835Y499740D01*
X525847Y499665D01*
X525900Y499502D01*
X525945Y499338D01*
X525977Y499268D01*
X526001Y499196D01*
X526080Y499045D01*
X526151Y498889D01*
X526193Y498826D01*
X526229Y498758D01*
X526294Y498676D01*
X526426Y498480D01*
X526588Y498308D01*
X526654Y498225D01*
X529573Y495306D01*
X531623Y490358D01*
X531623Y485002D01*
X529573Y480054D01*
X525786Y476267D01*
X520838Y474217D01*
X515482Y474217D01*
X510534Y476267D01*
X508631Y478170D01*
X508602Y478195D01*
X508576Y478223D01*
X508414Y478354D01*
X508255Y478490D01*
X508222Y478509D01*
X508192Y478533D01*
X508011Y478636D01*
X507832Y478744D01*
X507797Y478758D01*
X507764Y478777D01*
X507568Y478850D01*
X507374Y478927D01*
X507337Y478936D01*
X507301Y478949D01*
X507096Y478989D01*
X506892Y479034D01*
X506854Y479036D01*
X506817Y479043D01*
X506609Y479050D01*
X506400Y479062D01*
X506362Y479058D01*
X506324Y479059D01*
X506117Y479032D01*
X505909Y479009D01*
X505873Y478999D01*
X505835Y478994D01*
X505635Y478934D01*
X505434Y478879D01*
X505399Y478863D01*
X505362Y478852D01*
X505175Y478760D01*
X504985Y478673D01*
X504954Y478652D01*
X504919Y478635D01*
X504749Y478514D01*
X504576Y478398D01*
X504548Y478372D01*
X504517Y478350D01*
X504369Y478203D01*
X504216Y478060D01*
X504193Y478030D01*
X504166Y478003D01*
X504043Y477834D01*
X503916Y477669D01*
X503898Y477635D01*
X503876Y477604D01*
X503782Y477418D01*
X503683Y477234D01*
X503670Y477198D01*
X503653Y477164D01*
X503591Y476964D01*
X503523Y476767D01*
X503517Y476730D01*
X503505Y476693D01*
X503495Y476600D01*
X503440Y476281D01*
X503439Y476109D01*
X503429Y476015D01*
X503429Y465743D01*
X502191Y462755D01*
X499476Y460040D01*
X446565Y407129D01*
X443577Y405891D01*
X131629Y405891D01*
X131516Y405882D01*
X131401Y405883D01*
X131270Y405862D01*
X131138Y405851D01*
X131027Y405824D01*
X130914Y405806D01*
X130788Y405765D01*
X130659Y405733D01*
X130554Y405688D01*
X130445Y405652D01*
X130327Y405590D01*
X130205Y405538D01*
X130109Y405477D01*
X130008Y405424D01*
X129934Y405365D01*
X129789Y405273D01*
X129547Y405057D01*
X129475Y404999D01*
X49915Y325439D01*
X49841Y325353D01*
X49760Y325272D01*
X49682Y325165D01*
X49596Y325064D01*
X49537Y324966D01*
X49470Y324873D01*
X49410Y324755D01*
X49341Y324641D01*
X49299Y324535D01*
X49247Y324433D01*
X49207Y324306D01*
X49158Y324183D01*
X49133Y324072D01*
X49099Y323962D01*
X49089Y323869D01*
X49051Y323701D01*
X49033Y323377D01*
X49023Y323285D01*
X49023Y319902D01*
X46973Y314954D01*
X44054Y312035D01*
X44005Y311977D01*
X43949Y311925D01*
X43845Y311789D01*
X43734Y311659D01*
X43695Y311593D01*
X43649Y311533D01*
X43568Y311383D01*
X43480Y311236D01*
X43452Y311166D01*
X43416Y311098D01*
X43360Y310937D01*
X43297Y310778D01*
X43280Y310704D01*
X43256Y310632D01*
X43227Y310463D01*
X43190Y310297D01*
X43186Y310220D01*
X43173Y310145D01*
X43172Y309974D01*
X43162Y309804D01*
X43170Y309728D01*
X43170Y309652D01*
X43196Y309483D01*
X43215Y309313D01*
X43235Y309240D01*
X43247Y309165D01*
X43300Y309002D01*
X43345Y308838D01*
X43377Y308768D01*
X43401Y308696D01*
X43480Y308544D01*
X43551Y308389D01*
X43593Y308326D01*
X43629Y308258D01*
X43694Y308176D01*
X43826Y307980D01*
X43988Y307808D01*
X44054Y307725D01*
X46973Y304806D01*
X49023Y299858D01*
X49023Y294502D01*
X46973Y289554D01*
X44054Y286635D01*
X44005Y286577D01*
X43949Y286525D01*
X43845Y286389D01*
X43734Y286259D01*
X43695Y286193D01*
X43649Y286133D01*
X43568Y285983D01*
X43480Y285836D01*
X43452Y285766D01*
X43416Y285698D01*
X43360Y285537D01*
X43297Y285378D01*
X43280Y285304D01*
X43256Y285232D01*
X43227Y285063D01*
X43190Y284897D01*
X43186Y284820D01*
X43173Y284745D01*
X43172Y284574D01*
X43162Y284404D01*
X43170Y284328D01*
X43170Y284252D01*
X43196Y284083D01*
X43215Y283913D01*
X43235Y283840D01*
X43247Y283765D01*
X43300Y283602D01*
X43345Y283438D01*
X43377Y283368D01*
X43401Y283296D01*
X43480Y283144D01*
X43551Y282989D01*
X43593Y282926D01*
X43629Y282858D01*
X43694Y282776D01*
X43826Y282580D01*
X43988Y282408D01*
X44054Y282325D01*
X46973Y279406D01*
X49023Y274458D01*
X49023Y269102D01*
X46973Y264154D01*
X44054Y261235D01*
X44005Y261177D01*
X43949Y261125D01*
X43845Y260989D01*
X43734Y260859D01*
X43695Y260793D01*
X43649Y260733D01*
X43568Y260583D01*
X43480Y260436D01*
X43452Y260366D01*
X43416Y260298D01*
X43360Y260137D01*
X43297Y259978D01*
X43280Y259904D01*
X43256Y259832D01*
X43227Y259663D01*
X43190Y259497D01*
X43186Y259420D01*
X43173Y259345D01*
X43172Y259174D01*
X43162Y259004D01*
X43170Y258928D01*
X43170Y258852D01*
X43196Y258683D01*
X43215Y258513D01*
X43235Y258440D01*
X43247Y258365D01*
X43300Y258202D01*
X43345Y258038D01*
X43377Y257968D01*
X43401Y257896D01*
X43480Y257744D01*
X43551Y257589D01*
X43593Y257526D01*
X43629Y257458D01*
X43694Y257376D01*
X43826Y257180D01*
X43909Y257091D01*
X43923Y257073D01*
X43993Y257002D01*
X44054Y256925D01*
X46973Y254006D01*
X49023Y249058D01*
X49023Y243702D01*
X46973Y238754D01*
X44054Y235835D01*
X44005Y235777D01*
X43949Y235725D01*
X43845Y235589D01*
X43734Y235459D01*
X43695Y235393D01*
X43649Y235333D01*
X43568Y235183D01*
X43480Y235036D01*
X43452Y234966D01*
X43416Y234898D01*
X43360Y234737D01*
X43297Y234578D01*
X43280Y234504D01*
X43256Y234432D01*
X43227Y234263D01*
X43190Y234097D01*
X43186Y234020D01*
X43173Y233945D01*
X43172Y233774D01*
X43162Y233604D01*
X43170Y233528D01*
X43170Y233452D01*
X43196Y233283D01*
X43215Y233113D01*
X43235Y233040D01*
X43247Y232965D01*
X43300Y232802D01*
X43345Y232638D01*
X43377Y232568D01*
X43401Y232496D01*
X43480Y232344D01*
X43551Y232189D01*
X43593Y232126D01*
X43629Y232058D01*
X43694Y231976D01*
X43826Y231780D01*
X43988Y231608D01*
X44054Y231525D01*
X46973Y228606D01*
X49023Y223658D01*
X49023Y218302D01*
X46973Y213354D01*
X44054Y210435D01*
X44005Y210377D01*
X43949Y210325D01*
X43845Y210189D01*
X43734Y210059D01*
X43695Y209993D01*
X43649Y209933D01*
X43568Y209783D01*
X43480Y209636D01*
X43452Y209566D01*
X43416Y209498D01*
X43360Y209337D01*
X43297Y209178D01*
X43280Y209104D01*
X43256Y209032D01*
X43227Y208863D01*
X43190Y208697D01*
X43186Y208620D01*
X43173Y208545D01*
X43172Y208374D01*
X43162Y208204D01*
X43170Y208128D01*
X43170Y208052D01*
X43196Y207883D01*
X43215Y207713D01*
X43235Y207640D01*
X43247Y207565D01*
X43300Y207402D01*
X43345Y207238D01*
X43377Y207168D01*
X43401Y207096D01*
X43480Y206944D01*
X43551Y206789D01*
X43593Y206726D01*
X43629Y206658D01*
X43694Y206576D01*
X43826Y206380D01*
X43988Y206208D01*
X44054Y206125D01*
X46973Y203206D01*
X49023Y198258D01*
X49023Y192902D01*
X46973Y187954D01*
X44054Y185035D01*
X44005Y184977D01*
X43949Y184925D01*
X43845Y184789D01*
X43734Y184659D01*
X43695Y184593D01*
X43649Y184533D01*
X43568Y184383D01*
X43480Y184236D01*
X43452Y184166D01*
X43416Y184098D01*
X43360Y183937D01*
X43297Y183778D01*
X43280Y183704D01*
X43256Y183632D01*
X43227Y183463D01*
X43190Y183297D01*
X43186Y183220D01*
X43173Y183145D01*
X43172Y182974D01*
X43162Y182804D01*
X43170Y182728D01*
X43170Y182652D01*
X43196Y182483D01*
X43215Y182313D01*
X43235Y182240D01*
X43247Y182165D01*
X43300Y182002D01*
X43345Y181838D01*
X43377Y181768D01*
X43401Y181696D01*
X43480Y181544D01*
X43551Y181389D01*
X43593Y181326D01*
X43629Y181258D01*
X43694Y181176D01*
X43826Y180980D01*
X43887Y180915D01*
X43904Y180892D01*
X43994Y180801D01*
X44054Y180725D01*
X46973Y177806D01*
X49023Y172858D01*
X49023Y167502D01*
X46973Y162554D01*
X43186Y158767D01*
X38238Y156717D01*
X32882Y156717D01*
X27934Y158767D01*
X24147Y162554D01*
X22097Y167502D01*
X22097Y172858D01*
X24147Y177806D01*
X27066Y180725D01*
X27080Y180741D01*
X27090Y180750D01*
X27120Y180787D01*
X27171Y180836D01*
X27275Y180971D01*
X27386Y181101D01*
X27425Y181166D01*
X27471Y181227D01*
X27552Y181377D01*
X27640Y181524D01*
X27668Y181595D01*
X27704Y181662D01*
X27760Y181823D01*
X27823Y181982D01*
X27840Y182056D01*
X27864Y182128D01*
X27893Y182297D01*
X27930Y182464D01*
X27934Y182540D01*
X27947Y182615D01*
X27948Y182786D01*
X27958Y182956D01*
X27950Y183032D01*
X27950Y183108D01*
X27924Y183277D01*
X27905Y183447D01*
X27885Y183520D01*
X27873Y183595D01*
X27820Y183758D01*
X27775Y183922D01*
X27743Y183992D01*
X27719Y184064D01*
X27640Y184215D01*
X27569Y184371D01*
X27527Y184434D01*
X27491Y184502D01*
X27426Y184584D01*
X27294Y184780D01*
X27132Y184952D01*
X27066Y185035D01*
X24147Y187954D01*
X22097Y192902D01*
X22097Y198258D01*
X24147Y203206D01*
X27066Y206125D01*
X27115Y206183D01*
X27171Y206236D01*
X27275Y206371D01*
X27386Y206501D01*
X27425Y206566D01*
X27471Y206627D01*
X27552Y206777D01*
X27640Y206924D01*
X27668Y206995D01*
X27704Y207062D01*
X27760Y207223D01*
X27823Y207382D01*
X27840Y207456D01*
X27864Y207528D01*
X27893Y207697D01*
X27930Y207864D01*
X27934Y207940D01*
X27947Y208015D01*
X27948Y208186D01*
X27958Y208356D01*
X27950Y208432D01*
X27950Y208508D01*
X27924Y208677D01*
X27905Y208847D01*
X27885Y208920D01*
X27873Y208995D01*
X27820Y209158D01*
X27775Y209322D01*
X27743Y209392D01*
X27719Y209464D01*
X27640Y209615D01*
X27569Y209771D01*
X27527Y209834D01*
X27491Y209902D01*
X27426Y209984D01*
X27294Y210180D01*
X27132Y210352D01*
X27066Y210435D01*
X24147Y213354D01*
X22097Y218302D01*
X22097Y223658D01*
X24147Y228606D01*
X27066Y231525D01*
X27115Y231583D01*
X27171Y231636D01*
X27275Y231771D01*
X27386Y231901D01*
X27425Y231966D01*
X27471Y232027D01*
X27552Y232177D01*
X27640Y232324D01*
X27668Y232395D01*
X27704Y232462D01*
X27760Y232623D01*
X27823Y232782D01*
X27840Y232856D01*
X27864Y232928D01*
X27893Y233097D01*
X27930Y233264D01*
X27934Y233340D01*
X27947Y233415D01*
X27948Y233586D01*
X27958Y233756D01*
X27950Y233832D01*
X27950Y233908D01*
X27924Y234077D01*
X27905Y234247D01*
X27885Y234320D01*
X27873Y234395D01*
X27820Y234558D01*
X27775Y234722D01*
X27743Y234792D01*
X27719Y234864D01*
X27640Y235015D01*
X27569Y235171D01*
X27527Y235234D01*
X27491Y235302D01*
X27426Y235384D01*
X27294Y235580D01*
X27132Y235752D01*
X27066Y235835D01*
X24147Y238754D01*
X22097Y243702D01*
X22097Y249058D01*
X24147Y254006D01*
X27066Y256925D01*
X27115Y256983D01*
X27171Y257036D01*
X27275Y257171D01*
X27386Y257301D01*
X27425Y257366D01*
X27471Y257427D01*
X27552Y257577D01*
X27640Y257724D01*
X27668Y257795D01*
X27704Y257862D01*
X27760Y258023D01*
X27823Y258182D01*
X27840Y258256D01*
X27864Y258328D01*
X27893Y258497D01*
X27930Y258664D01*
X27934Y258740D01*
X27947Y258815D01*
X27948Y258986D01*
X27958Y259156D01*
X27950Y259232D01*
X27950Y259308D01*
X27924Y259477D01*
X27905Y259647D01*
X27885Y259720D01*
X27873Y259795D01*
X27820Y259958D01*
X27775Y260122D01*
X27743Y260192D01*
X27719Y260264D01*
X27640Y260415D01*
X27569Y260571D01*
X27527Y260634D01*
X27491Y260702D01*
X27426Y260784D01*
X27294Y260980D01*
X27132Y261152D01*
X27066Y261235D01*
X24147Y264154D01*
X22097Y269102D01*
X22097Y274458D01*
X24147Y279406D01*
X27066Y282325D01*
X27115Y282383D01*
X27171Y282436D01*
X27275Y282571D01*
X27386Y282701D01*
X27425Y282767D01*
X27471Y282827D01*
X27552Y282977D01*
X27640Y283124D01*
X27668Y283195D01*
X27704Y283262D01*
X27760Y283423D01*
X27823Y283582D01*
X27840Y283656D01*
X27864Y283728D01*
X27893Y283897D01*
X27930Y284064D01*
X27934Y284140D01*
X27947Y284215D01*
X27948Y284386D01*
X27958Y284556D01*
X27950Y284632D01*
X27950Y284708D01*
X27924Y284877D01*
X27905Y285047D01*
X27885Y285120D01*
X27873Y285195D01*
X27820Y285358D01*
X27775Y285522D01*
X27743Y285592D01*
X27719Y285664D01*
X27640Y285815D01*
X27569Y285971D01*
X27526Y286034D01*
X27491Y286102D01*
X27426Y286184D01*
X27294Y286380D01*
X27132Y286552D01*
X27066Y286635D01*
X25542Y288159D01*
X25455Y288233D01*
X25375Y288314D01*
X25268Y288392D01*
X25166Y288478D01*
X25068Y288537D01*
X24976Y288604D01*
X24857Y288664D01*
X24744Y288733D01*
X24637Y288775D01*
X24536Y288827D01*
X24409Y288867D01*
X24285Y288916D01*
X24174Y288941D01*
X24065Y288975D01*
X23972Y288985D01*
X23804Y289023D01*
X23480Y289041D01*
X23387Y289051D01*
X21243Y289051D01*
X18255Y290289D01*
X15540Y293004D01*
X5203Y303342D01*
X5174Y303366D01*
X5148Y303395D01*
X4986Y303526D01*
X4827Y303661D01*
X4794Y303681D01*
X4764Y303705D01*
X4584Y303807D01*
X4404Y303916D01*
X4369Y303930D01*
X4336Y303949D01*
X4140Y304021D01*
X3946Y304099D01*
X3909Y304107D01*
X3873Y304120D01*
X3668Y304160D01*
X3464Y304205D01*
X3426Y304208D01*
X3389Y304215D01*
X3181Y304221D01*
X2972Y304233D01*
X2934Y304229D01*
X2896Y304230D01*
X2689Y304203D01*
X2481Y304181D01*
X2445Y304171D01*
X2407Y304166D01*
X2207Y304105D01*
X2006Y304050D01*
X1971Y304034D01*
X1934Y304023D01*
X1747Y303932D01*
X1557Y303845D01*
X1525Y303823D01*
X1491Y303806D01*
X1322Y303686D01*
X1148Y303569D01*
X1120Y303543D01*
X1089Y303521D01*
X941Y303374D01*
X788Y303231D01*
X765Y303201D01*
X738Y303174D01*
X615Y303006D01*
X488Y302840D01*
X470Y302806D01*
X448Y302775D01*
X354Y302589D01*
X255Y302405D01*
X242Y302369D01*
X225Y302335D01*
X163Y302136D01*
X95Y301938D01*
X89Y301901D01*
X77Y301865D01*
X67Y301772D01*
X12Y301452D01*
X11Y301280D01*
X1Y301187D01*
X1Y64008D01*
X7Y63932D01*
X5Y63856D01*
X27Y63687D01*
X41Y63516D01*
X59Y63442D01*
X69Y63367D01*
X118Y63203D01*
X159Y63037D01*
X189Y62968D01*
X211Y62894D01*
X287Y62741D01*
X354Y62584D01*
X395Y62520D01*
X428Y62451D01*
X527Y62312D01*
X619Y62168D01*
X670Y62111D01*
X714Y62049D01*
X834Y61928D01*
X948Y61800D01*
X1007Y61752D01*
X1061Y61698D01*
X1199Y61597D01*
X1332Y61490D01*
X1398Y61453D01*
X1459Y61408D01*
X1612Y61331D01*
X1760Y61246D01*
X1832Y61220D01*
X1900Y61185D01*
X2063Y61134D01*
X2223Y61075D01*
X2298Y61060D01*
X2370Y61037D01*
X2475Y61025D01*
X2707Y60980D01*
X2943Y60973D01*
X3048Y60961D01*
X542852Y60961D01*
X542928Y60967D01*
G37*
%LPC*%
G36*
X32882Y423417D02*
X32882Y423417D01*
X27934Y425467D01*
X24147Y429254D01*
X22097Y434202D01*
X22097Y439558D01*
X24147Y444506D01*
X27066Y447425D01*
X27115Y447483D01*
X27171Y447536D01*
X27275Y447671D01*
X27386Y447801D01*
X27425Y447866D01*
X27471Y447927D01*
X27552Y448077D01*
X27640Y448224D01*
X27668Y448295D01*
X27704Y448362D01*
X27760Y448523D01*
X27823Y448682D01*
X27840Y448756D01*
X27864Y448828D01*
X27893Y448997D01*
X27930Y449164D01*
X27934Y449240D01*
X27947Y449315D01*
X27948Y449486D01*
X27958Y449656D01*
X27950Y449732D01*
X27950Y449808D01*
X27924Y449977D01*
X27905Y450147D01*
X27885Y450220D01*
X27873Y450295D01*
X27820Y450458D01*
X27775Y450622D01*
X27743Y450692D01*
X27719Y450764D01*
X27640Y450915D01*
X27569Y451071D01*
X27527Y451134D01*
X27491Y451202D01*
X27426Y451284D01*
X27294Y451480D01*
X27132Y451652D01*
X27066Y451735D01*
X24147Y454654D01*
X22097Y459602D01*
X22097Y464958D01*
X24147Y469906D01*
X27066Y472825D01*
X27115Y472883D01*
X27171Y472936D01*
X27275Y473071D01*
X27386Y473201D01*
X27425Y473266D01*
X27471Y473327D01*
X27552Y473477D01*
X27640Y473624D01*
X27668Y473695D01*
X27704Y473762D01*
X27760Y473923D01*
X27823Y474082D01*
X27840Y474156D01*
X27864Y474228D01*
X27893Y474397D01*
X27930Y474564D01*
X27934Y474640D01*
X27947Y474715D01*
X27948Y474886D01*
X27958Y475056D01*
X27950Y475132D01*
X27950Y475208D01*
X27924Y475377D01*
X27905Y475547D01*
X27885Y475620D01*
X27873Y475695D01*
X27820Y475858D01*
X27775Y476022D01*
X27743Y476092D01*
X27719Y476164D01*
X27640Y476315D01*
X27569Y476471D01*
X27527Y476534D01*
X27491Y476602D01*
X27426Y476684D01*
X27294Y476880D01*
X27132Y477052D01*
X27066Y477135D01*
X24147Y480054D01*
X22097Y485002D01*
X22097Y490358D01*
X24147Y495306D01*
X27066Y498225D01*
X27115Y498283D01*
X27171Y498336D01*
X27275Y498471D01*
X27386Y498601D01*
X27425Y498666D01*
X27471Y498727D01*
X27552Y498877D01*
X27640Y499024D01*
X27668Y499095D01*
X27704Y499162D01*
X27760Y499323D01*
X27823Y499482D01*
X27840Y499556D01*
X27864Y499628D01*
X27893Y499797D01*
X27930Y499964D01*
X27934Y500040D01*
X27947Y500115D01*
X27948Y500286D01*
X27958Y500456D01*
X27950Y500532D01*
X27950Y500608D01*
X27924Y500777D01*
X27905Y500947D01*
X27885Y501020D01*
X27873Y501095D01*
X27820Y501258D01*
X27775Y501422D01*
X27743Y501492D01*
X27719Y501564D01*
X27640Y501715D01*
X27569Y501871D01*
X27527Y501934D01*
X27491Y502002D01*
X27426Y502084D01*
X27294Y502280D01*
X27132Y502452D01*
X27066Y502535D01*
X24147Y505454D01*
X22097Y510402D01*
X22097Y515758D01*
X24147Y520706D01*
X27066Y523625D01*
X27115Y523683D01*
X27171Y523736D01*
X27275Y523871D01*
X27386Y524001D01*
X27425Y524066D01*
X27471Y524127D01*
X27552Y524277D01*
X27640Y524424D01*
X27668Y524495D01*
X27704Y524562D01*
X27760Y524723D01*
X27823Y524882D01*
X27840Y524956D01*
X27864Y525028D01*
X27893Y525197D01*
X27930Y525364D01*
X27934Y525440D01*
X27947Y525515D01*
X27948Y525686D01*
X27958Y525856D01*
X27950Y525932D01*
X27950Y526008D01*
X27924Y526177D01*
X27905Y526347D01*
X27885Y526420D01*
X27873Y526495D01*
X27820Y526658D01*
X27775Y526822D01*
X27743Y526892D01*
X27719Y526964D01*
X27640Y527115D01*
X27569Y527271D01*
X27527Y527334D01*
X27491Y527402D01*
X27426Y527484D01*
X27294Y527680D01*
X27132Y527852D01*
X27066Y527935D01*
X24147Y530854D01*
X22097Y535802D01*
X22097Y541158D01*
X24147Y546106D01*
X27066Y549025D01*
X27115Y549083D01*
X27171Y549136D01*
X27275Y549271D01*
X27386Y549401D01*
X27425Y549466D01*
X27471Y549527D01*
X27552Y549677D01*
X27640Y549824D01*
X27668Y549895D01*
X27704Y549962D01*
X27760Y550123D01*
X27823Y550282D01*
X27840Y550356D01*
X27864Y550428D01*
X27893Y550597D01*
X27930Y550764D01*
X27934Y550840D01*
X27947Y550915D01*
X27948Y551086D01*
X27958Y551256D01*
X27950Y551332D01*
X27950Y551408D01*
X27924Y551577D01*
X27905Y551747D01*
X27885Y551820D01*
X27873Y551895D01*
X27820Y552058D01*
X27775Y552222D01*
X27743Y552292D01*
X27719Y552364D01*
X27640Y552515D01*
X27569Y552671D01*
X27527Y552734D01*
X27491Y552802D01*
X27426Y552884D01*
X27294Y553080D01*
X27132Y553252D01*
X27066Y553335D01*
X24147Y556254D01*
X22097Y561202D01*
X22097Y566558D01*
X24147Y571506D01*
X27066Y574425D01*
X27115Y574483D01*
X27171Y574536D01*
X27275Y574671D01*
X27386Y574801D01*
X27425Y574866D01*
X27471Y574927D01*
X27552Y575077D01*
X27640Y575224D01*
X27668Y575295D01*
X27704Y575362D01*
X27760Y575523D01*
X27823Y575682D01*
X27840Y575756D01*
X27864Y575828D01*
X27893Y575997D01*
X27930Y576164D01*
X27934Y576240D01*
X27947Y576315D01*
X27948Y576486D01*
X27958Y576656D01*
X27950Y576732D01*
X27950Y576808D01*
X27924Y576977D01*
X27905Y577147D01*
X27885Y577220D01*
X27873Y577295D01*
X27820Y577458D01*
X27775Y577622D01*
X27743Y577692D01*
X27719Y577764D01*
X27640Y577915D01*
X27569Y578071D01*
X27527Y578134D01*
X27491Y578202D01*
X27426Y578284D01*
X27294Y578480D01*
X27132Y578652D01*
X27066Y578735D01*
X24147Y581654D01*
X22097Y586602D01*
X22097Y591958D01*
X24147Y596906D01*
X27066Y599825D01*
X27115Y599883D01*
X27171Y599936D01*
X27275Y600071D01*
X27386Y600201D01*
X27425Y600266D01*
X27471Y600327D01*
X27552Y600477D01*
X27640Y600624D01*
X27668Y600695D01*
X27704Y600762D01*
X27760Y600923D01*
X27823Y601082D01*
X27840Y601156D01*
X27864Y601228D01*
X27893Y601397D01*
X27930Y601564D01*
X27934Y601640D01*
X27947Y601715D01*
X27948Y601886D01*
X27958Y602056D01*
X27950Y602132D01*
X27950Y602208D01*
X27924Y602377D01*
X27905Y602547D01*
X27885Y602620D01*
X27873Y602695D01*
X27820Y602858D01*
X27775Y603022D01*
X27743Y603092D01*
X27719Y603164D01*
X27640Y603315D01*
X27569Y603471D01*
X27527Y603534D01*
X27491Y603602D01*
X27426Y603684D01*
X27294Y603880D01*
X27132Y604052D01*
X27066Y604135D01*
X24147Y607054D01*
X22097Y612002D01*
X22097Y617358D01*
X24147Y622306D01*
X27934Y626093D01*
X32882Y628143D01*
X38238Y628143D01*
X43186Y626093D01*
X46973Y622306D01*
X49023Y617358D01*
X49023Y612002D01*
X46973Y607054D01*
X44054Y604135D01*
X44005Y604077D01*
X43949Y604025D01*
X43845Y603889D01*
X43734Y603759D01*
X43695Y603693D01*
X43649Y603633D01*
X43568Y603483D01*
X43480Y603336D01*
X43452Y603266D01*
X43416Y603198D01*
X43360Y603037D01*
X43297Y602878D01*
X43280Y602804D01*
X43256Y602732D01*
X43227Y602563D01*
X43190Y602397D01*
X43186Y602320D01*
X43173Y602245D01*
X43172Y602074D01*
X43162Y601904D01*
X43170Y601828D01*
X43170Y601752D01*
X43196Y601583D01*
X43215Y601413D01*
X43235Y601340D01*
X43247Y601265D01*
X43300Y601102D01*
X43345Y600938D01*
X43377Y600868D01*
X43401Y600796D01*
X43480Y600644D01*
X43551Y600489D01*
X43593Y600426D01*
X43629Y600358D01*
X43694Y600276D01*
X43826Y600080D01*
X43988Y599908D01*
X44054Y599825D01*
X46973Y596906D01*
X49023Y591958D01*
X49023Y586602D01*
X46973Y581654D01*
X44054Y578735D01*
X44005Y578677D01*
X43949Y578625D01*
X43845Y578489D01*
X43734Y578359D01*
X43695Y578293D01*
X43649Y578233D01*
X43568Y578083D01*
X43480Y577936D01*
X43452Y577866D01*
X43416Y577798D01*
X43360Y577637D01*
X43297Y577478D01*
X43280Y577404D01*
X43256Y577332D01*
X43227Y577163D01*
X43190Y576997D01*
X43186Y576920D01*
X43173Y576845D01*
X43172Y576674D01*
X43162Y576504D01*
X43170Y576428D01*
X43170Y576352D01*
X43196Y576183D01*
X43215Y576013D01*
X43235Y575940D01*
X43247Y575865D01*
X43300Y575702D01*
X43345Y575538D01*
X43377Y575468D01*
X43401Y575396D01*
X43480Y575244D01*
X43551Y575089D01*
X43593Y575026D01*
X43629Y574958D01*
X43694Y574876D01*
X43826Y574680D01*
X43988Y574508D01*
X44054Y574425D01*
X46973Y571506D01*
X49023Y566558D01*
X49023Y561202D01*
X46973Y556254D01*
X45070Y554351D01*
X45045Y554322D01*
X45017Y554296D01*
X44886Y554134D01*
X44750Y553975D01*
X44731Y553942D01*
X44707Y553912D01*
X44604Y553731D01*
X44496Y553552D01*
X44482Y553517D01*
X44463Y553484D01*
X44390Y553288D01*
X44313Y553094D01*
X44304Y553057D01*
X44291Y553021D01*
X44251Y552816D01*
X44206Y552612D01*
X44204Y552574D01*
X44197Y552537D01*
X44190Y552329D01*
X44178Y552120D01*
X44182Y552082D01*
X44181Y552044D01*
X44208Y551837D01*
X44231Y551629D01*
X44241Y551593D01*
X44246Y551555D01*
X44306Y551355D01*
X44361Y551154D01*
X44377Y551119D01*
X44388Y551082D01*
X44480Y550895D01*
X44567Y550705D01*
X44588Y550674D01*
X44605Y550639D01*
X44726Y550469D01*
X44842Y550296D01*
X44868Y550268D01*
X44890Y550237D01*
X45037Y550089D01*
X45180Y549936D01*
X45210Y549913D01*
X45237Y549886D01*
X45406Y549763D01*
X45571Y549636D01*
X45605Y549618D01*
X45636Y549596D01*
X45822Y549502D01*
X46006Y549403D01*
X46042Y549390D01*
X46076Y549373D01*
X46276Y549311D01*
X46473Y549243D01*
X46510Y549237D01*
X46547Y549225D01*
X46640Y549215D01*
X46959Y549160D01*
X47131Y549159D01*
X47225Y549149D01*
X264832Y549149D01*
X264945Y549158D01*
X265060Y549157D01*
X265191Y549178D01*
X265323Y549189D01*
X265434Y549216D01*
X265547Y549234D01*
X265673Y549275D01*
X265802Y549307D01*
X265907Y549352D01*
X266015Y549388D01*
X266133Y549450D01*
X266255Y549502D01*
X266352Y549563D01*
X266453Y549616D01*
X266527Y549675D01*
X266672Y549767D01*
X266914Y549983D01*
X266986Y550041D01*
X267769Y550824D01*
X272020Y552585D01*
X276620Y552585D01*
X280871Y550824D01*
X284124Y547571D01*
X285885Y543320D01*
X285885Y538720D01*
X284124Y534469D01*
X280871Y531216D01*
X276620Y529455D01*
X272020Y529455D01*
X267769Y531216D01*
X266986Y531999D01*
X266899Y532073D01*
X266819Y532154D01*
X266712Y532232D01*
X266610Y532318D01*
X266512Y532377D01*
X266420Y532444D01*
X266302Y532504D01*
X266188Y532573D01*
X266082Y532615D01*
X265980Y532667D01*
X265853Y532707D01*
X265730Y532756D01*
X265618Y532781D01*
X265509Y532815D01*
X265416Y532825D01*
X265248Y532863D01*
X264924Y532881D01*
X264832Y532891D01*
X49853Y532891D01*
X49635Y532874D01*
X49418Y532860D01*
X49390Y532854D01*
X49361Y532851D01*
X49149Y532799D01*
X48937Y532750D01*
X48910Y532739D01*
X48883Y532733D01*
X48682Y532647D01*
X48480Y532564D01*
X48455Y532549D01*
X48429Y532538D01*
X48245Y532421D01*
X48059Y532307D01*
X48037Y532288D01*
X48013Y532273D01*
X47851Y532128D01*
X47685Y531985D01*
X47667Y531963D01*
X47645Y531944D01*
X47508Y531774D01*
X47368Y531607D01*
X47356Y531587D01*
X47335Y531560D01*
X47091Y531132D01*
X47063Y531056D01*
X47038Y531010D01*
X46973Y530854D01*
X44054Y527935D01*
X44005Y527877D01*
X43949Y527825D01*
X43845Y527689D01*
X43734Y527559D01*
X43695Y527493D01*
X43649Y527433D01*
X43568Y527283D01*
X43480Y527136D01*
X43452Y527066D01*
X43416Y526998D01*
X43360Y526837D01*
X43297Y526678D01*
X43280Y526604D01*
X43256Y526532D01*
X43227Y526363D01*
X43190Y526197D01*
X43186Y526120D01*
X43173Y526045D01*
X43172Y525874D01*
X43162Y525704D01*
X43170Y525628D01*
X43170Y525552D01*
X43196Y525383D01*
X43215Y525213D01*
X43235Y525140D01*
X43247Y525065D01*
X43300Y524902D01*
X43345Y524738D01*
X43377Y524668D01*
X43401Y524596D01*
X43480Y524444D01*
X43551Y524289D01*
X43593Y524226D01*
X43629Y524158D01*
X43694Y524076D01*
X43826Y523880D01*
X43988Y523708D01*
X44054Y523625D01*
X45578Y522101D01*
X45665Y522027D01*
X45745Y521946D01*
X45853Y521868D01*
X45954Y521782D01*
X46052Y521723D01*
X46144Y521656D01*
X46262Y521596D01*
X46376Y521527D01*
X46483Y521485D01*
X46584Y521433D01*
X46711Y521393D01*
X46835Y521344D01*
X46946Y521319D01*
X47055Y521285D01*
X47148Y521275D01*
X47316Y521237D01*
X47640Y521219D01*
X47733Y521209D01*
X353511Y521209D01*
X353624Y521218D01*
X353739Y521217D01*
X353870Y521238D01*
X354002Y521249D01*
X354113Y521276D01*
X354226Y521294D01*
X354352Y521335D01*
X354481Y521367D01*
X354586Y521412D01*
X354695Y521448D01*
X354813Y521510D01*
X354935Y521562D01*
X355031Y521623D01*
X355132Y521676D01*
X355206Y521735D01*
X355351Y521827D01*
X355593Y522043D01*
X355665Y522101D01*
X366190Y532626D01*
X366239Y532684D01*
X366295Y532736D01*
X366399Y532871D01*
X366509Y533002D01*
X366549Y533067D01*
X366595Y533127D01*
X366676Y533278D01*
X366764Y533424D01*
X366792Y533495D01*
X366828Y533562D01*
X366884Y533724D01*
X366947Y533882D01*
X366964Y533957D01*
X366988Y534029D01*
X367017Y534197D01*
X367054Y534364D01*
X367058Y534440D01*
X367071Y534515D01*
X367072Y534686D01*
X367081Y534856D01*
X367073Y534932D01*
X367074Y535008D01*
X367047Y535177D01*
X367029Y535347D01*
X367009Y535421D01*
X366997Y535496D01*
X366944Y535658D01*
X366899Y535823D01*
X366867Y535892D01*
X366843Y535964D01*
X366764Y536116D01*
X366693Y536271D01*
X366650Y536334D01*
X366615Y536402D01*
X366550Y536484D01*
X366418Y536680D01*
X366255Y536853D01*
X366190Y536935D01*
X366116Y537009D01*
X364355Y541260D01*
X364355Y545860D01*
X366116Y550111D01*
X369369Y553364D01*
X373620Y555125D01*
X378220Y555125D01*
X382471Y553364D01*
X385724Y550111D01*
X387485Y545860D01*
X387485Y541260D01*
X385724Y537009D01*
X384941Y536226D01*
X384867Y536139D01*
X384786Y536059D01*
X384708Y535952D01*
X384622Y535850D01*
X384563Y535752D01*
X384496Y535660D01*
X384436Y535542D01*
X384367Y535428D01*
X384325Y535322D01*
X384273Y535220D01*
X384233Y535093D01*
X384184Y534970D01*
X384159Y534858D01*
X384125Y534749D01*
X384115Y534656D01*
X384077Y534488D01*
X384059Y534164D01*
X384049Y534072D01*
X384049Y529243D01*
X382811Y526255D01*
X362745Y506189D01*
X359757Y504951D01*
X47733Y504951D01*
X47619Y504942D01*
X47505Y504943D01*
X47373Y504922D01*
X47241Y504911D01*
X47130Y504884D01*
X47017Y504866D01*
X46891Y504825D01*
X46762Y504793D01*
X46657Y504748D01*
X46549Y504712D01*
X46431Y504651D01*
X46309Y504598D01*
X46212Y504537D01*
X46111Y504484D01*
X46038Y504425D01*
X45893Y504333D01*
X45651Y504117D01*
X45578Y504059D01*
X44054Y502535D01*
X44005Y502477D01*
X43949Y502425D01*
X43845Y502289D01*
X43734Y502159D01*
X43695Y502094D01*
X43649Y502033D01*
X43568Y501883D01*
X43480Y501736D01*
X43452Y501666D01*
X43416Y501598D01*
X43360Y501437D01*
X43297Y501278D01*
X43280Y501204D01*
X43256Y501132D01*
X43227Y500963D01*
X43190Y500797D01*
X43186Y500720D01*
X43173Y500645D01*
X43172Y500475D01*
X43162Y500304D01*
X43170Y500228D01*
X43170Y500152D01*
X43196Y499983D01*
X43215Y499813D01*
X43235Y499740D01*
X43247Y499665D01*
X43300Y499502D01*
X43345Y499338D01*
X43377Y499269D01*
X43401Y499196D01*
X43480Y499044D01*
X43551Y498889D01*
X43593Y498826D01*
X43629Y498758D01*
X43694Y498676D01*
X43826Y498480D01*
X43988Y498308D01*
X44054Y498225D01*
X46973Y495306D01*
X49023Y490358D01*
X49023Y485002D01*
X46973Y480054D01*
X44054Y477135D01*
X44005Y477077D01*
X43949Y477025D01*
X43845Y476889D01*
X43734Y476759D01*
X43695Y476693D01*
X43649Y476633D01*
X43568Y476483D01*
X43480Y476336D01*
X43452Y476266D01*
X43416Y476198D01*
X43360Y476037D01*
X43297Y475878D01*
X43280Y475804D01*
X43256Y475732D01*
X43227Y475563D01*
X43190Y475397D01*
X43186Y475320D01*
X43173Y475245D01*
X43172Y475074D01*
X43162Y474904D01*
X43170Y474828D01*
X43170Y474752D01*
X43196Y474583D01*
X43215Y474413D01*
X43235Y474340D01*
X43247Y474265D01*
X43300Y474102D01*
X43345Y473938D01*
X43377Y473868D01*
X43401Y473796D01*
X43480Y473644D01*
X43551Y473489D01*
X43593Y473426D01*
X43629Y473358D01*
X43694Y473276D01*
X43826Y473080D01*
X43988Y472908D01*
X44054Y472825D01*
X46973Y469906D01*
X49023Y464958D01*
X49023Y459602D01*
X46973Y454654D01*
X44054Y451735D01*
X44005Y451677D01*
X43949Y451625D01*
X43845Y451489D01*
X43734Y451359D01*
X43695Y451293D01*
X43649Y451233D01*
X43568Y451083D01*
X43480Y450936D01*
X43452Y450866D01*
X43416Y450798D01*
X43360Y450637D01*
X43297Y450478D01*
X43280Y450404D01*
X43256Y450332D01*
X43227Y450163D01*
X43190Y449997D01*
X43186Y449920D01*
X43173Y449845D01*
X43172Y449674D01*
X43162Y449504D01*
X43170Y449428D01*
X43170Y449352D01*
X43196Y449183D01*
X43215Y449013D01*
X43235Y448940D01*
X43247Y448865D01*
X43300Y448702D01*
X43345Y448538D01*
X43377Y448468D01*
X43401Y448396D01*
X43480Y448244D01*
X43551Y448089D01*
X43593Y448026D01*
X43629Y447958D01*
X43694Y447876D01*
X43826Y447680D01*
X43988Y447508D01*
X44054Y447425D01*
X46973Y444506D01*
X49023Y439558D01*
X49023Y434202D01*
X46973Y429254D01*
X43186Y425467D01*
X38238Y423417D01*
X32882Y423417D01*
G37*
%LPD*%
%LPC*%
G36*
X145020Y465955D02*
X145020Y465955D01*
X140769Y467716D01*
X137516Y470969D01*
X135755Y475220D01*
X135755Y479820D01*
X137516Y484071D01*
X140769Y487324D01*
X145020Y489085D01*
X149620Y489085D01*
X153871Y487324D01*
X154654Y486541D01*
X154741Y486467D01*
X154821Y486386D01*
X154928Y486308D01*
X155030Y486222D01*
X155127Y486163D01*
X155220Y486096D01*
X155338Y486036D01*
X155452Y485967D01*
X155558Y485925D01*
X155660Y485873D01*
X155787Y485833D01*
X155910Y485784D01*
X156022Y485759D01*
X156131Y485725D01*
X156224Y485715D01*
X156392Y485677D01*
X156716Y485659D01*
X156808Y485649D01*
X249592Y485649D01*
X249705Y485658D01*
X249820Y485657D01*
X249951Y485678D01*
X250083Y485689D01*
X250194Y485716D01*
X250307Y485734D01*
X250433Y485775D01*
X250562Y485807D01*
X250667Y485852D01*
X250775Y485888D01*
X250893Y485950D01*
X251015Y486002D01*
X251112Y486063D01*
X251213Y486116D01*
X251287Y486175D01*
X251432Y486267D01*
X251674Y486483D01*
X251746Y486541D01*
X252529Y487324D01*
X256780Y489085D01*
X261380Y489085D01*
X265631Y487324D01*
X266414Y486541D01*
X266501Y486467D01*
X266581Y486386D01*
X266688Y486308D01*
X266790Y486222D01*
X266887Y486163D01*
X266980Y486096D01*
X267098Y486036D01*
X267212Y485967D01*
X267318Y485925D01*
X267420Y485873D01*
X267547Y485833D01*
X267670Y485784D01*
X267782Y485759D01*
X267891Y485725D01*
X267984Y485715D01*
X268152Y485677D01*
X268476Y485659D01*
X268568Y485649D01*
X351192Y485649D01*
X351305Y485658D01*
X351420Y485657D01*
X351551Y485678D01*
X351683Y485689D01*
X351794Y485716D01*
X351907Y485734D01*
X352033Y485775D01*
X352162Y485807D01*
X352267Y485852D01*
X352375Y485888D01*
X352493Y485950D01*
X352615Y486002D01*
X352712Y486063D01*
X352813Y486116D01*
X352887Y486175D01*
X353032Y486267D01*
X353274Y486483D01*
X353346Y486541D01*
X354129Y487324D01*
X358380Y489085D01*
X362980Y489085D01*
X367231Y487324D01*
X368014Y486541D01*
X368101Y486467D01*
X368181Y486386D01*
X368288Y486308D01*
X368390Y486222D01*
X368487Y486163D01*
X368580Y486096D01*
X368698Y486036D01*
X368812Y485967D01*
X368918Y485925D01*
X369020Y485873D01*
X369147Y485833D01*
X369270Y485784D01*
X369382Y485759D01*
X369491Y485725D01*
X369584Y485715D01*
X369752Y485677D01*
X370076Y485659D01*
X370168Y485649D01*
X450252Y485649D01*
X450365Y485658D01*
X450480Y485657D01*
X450611Y485678D01*
X450743Y485689D01*
X450854Y485716D01*
X450967Y485734D01*
X451093Y485775D01*
X451222Y485807D01*
X451327Y485852D01*
X451435Y485888D01*
X451553Y485950D01*
X451675Y486002D01*
X451772Y486063D01*
X451873Y486116D01*
X451947Y486175D01*
X452092Y486267D01*
X452334Y486483D01*
X452406Y486541D01*
X453189Y487324D01*
X457440Y489085D01*
X462040Y489085D01*
X466291Y487324D01*
X469544Y484071D01*
X471305Y479820D01*
X471305Y475220D01*
X469544Y470969D01*
X466291Y467716D01*
X462040Y465955D01*
X457440Y465955D01*
X453189Y467716D01*
X452406Y468499D01*
X452319Y468573D01*
X452239Y468654D01*
X452132Y468732D01*
X452030Y468818D01*
X451932Y468877D01*
X451840Y468944D01*
X451722Y469004D01*
X451608Y469073D01*
X451502Y469115D01*
X451400Y469167D01*
X451273Y469207D01*
X451150Y469256D01*
X451038Y469281D01*
X450929Y469315D01*
X450836Y469325D01*
X450668Y469363D01*
X450344Y469381D01*
X450252Y469391D01*
X370168Y469391D01*
X370055Y469382D01*
X369940Y469383D01*
X369809Y469362D01*
X369677Y469351D01*
X369566Y469324D01*
X369453Y469306D01*
X369327Y469265D01*
X369198Y469233D01*
X369093Y469188D01*
X368984Y469152D01*
X368867Y469091D01*
X368745Y469038D01*
X368648Y468977D01*
X368547Y468924D01*
X368473Y468865D01*
X368328Y468773D01*
X368086Y468557D01*
X368014Y468499D01*
X367231Y467716D01*
X362980Y465955D01*
X358380Y465955D01*
X354129Y467716D01*
X353346Y468499D01*
X353259Y468573D01*
X353179Y468654D01*
X353072Y468732D01*
X352970Y468818D01*
X352872Y468877D01*
X352780Y468944D01*
X352662Y469004D01*
X352548Y469073D01*
X352442Y469115D01*
X352340Y469167D01*
X352213Y469207D01*
X352090Y469256D01*
X351978Y469281D01*
X351869Y469315D01*
X351776Y469325D01*
X351608Y469363D01*
X351284Y469381D01*
X351192Y469391D01*
X268568Y469391D01*
X268455Y469382D01*
X268340Y469383D01*
X268209Y469362D01*
X268077Y469351D01*
X267966Y469324D01*
X267853Y469306D01*
X267727Y469265D01*
X267598Y469233D01*
X267493Y469188D01*
X267384Y469152D01*
X267267Y469091D01*
X267145Y469038D01*
X267048Y468977D01*
X266947Y468924D01*
X266873Y468865D01*
X266728Y468773D01*
X266486Y468557D01*
X266414Y468499D01*
X265631Y467716D01*
X261380Y465955D01*
X256780Y465955D01*
X252529Y467716D01*
X251746Y468499D01*
X251659Y468573D01*
X251579Y468654D01*
X251472Y468732D01*
X251370Y468818D01*
X251272Y468877D01*
X251180Y468944D01*
X251062Y469004D01*
X250948Y469073D01*
X250842Y469115D01*
X250740Y469167D01*
X250613Y469207D01*
X250490Y469256D01*
X250378Y469281D01*
X250269Y469315D01*
X250176Y469325D01*
X250008Y469363D01*
X249684Y469381D01*
X249592Y469391D01*
X156808Y469391D01*
X156695Y469382D01*
X156580Y469383D01*
X156449Y469362D01*
X156317Y469351D01*
X156206Y469324D01*
X156093Y469306D01*
X155967Y469265D01*
X155838Y469233D01*
X155733Y469188D01*
X155624Y469152D01*
X155507Y469091D01*
X155385Y469038D01*
X155288Y468977D01*
X155187Y468924D01*
X155113Y468865D01*
X154968Y468773D01*
X154726Y468557D01*
X154654Y468499D01*
X153871Y467716D01*
X149620Y465955D01*
X145020Y465955D01*
G37*
%LPD*%
%LPC*%
G36*
X145020Y338955D02*
X145020Y338955D01*
X140769Y340716D01*
X137516Y343969D01*
X135755Y348220D01*
X135755Y352820D01*
X137516Y357071D01*
X140769Y360324D01*
X145020Y362085D01*
X149620Y362085D01*
X153871Y360324D01*
X154654Y359541D01*
X154741Y359467D01*
X154821Y359386D01*
X154928Y359308D01*
X155030Y359222D01*
X155128Y359163D01*
X155220Y359096D01*
X155338Y359036D01*
X155452Y358967D01*
X155558Y358925D01*
X155660Y358873D01*
X155787Y358833D01*
X155910Y358784D01*
X156022Y358759D01*
X156131Y358725D01*
X156224Y358715D01*
X156392Y358677D01*
X156716Y358659D01*
X156808Y358649D01*
X252132Y358649D01*
X252245Y358658D01*
X252360Y358657D01*
X252491Y358678D01*
X252623Y358689D01*
X252734Y358716D01*
X252847Y358734D01*
X252973Y358775D01*
X253102Y358807D01*
X253207Y358852D01*
X253316Y358888D01*
X253433Y358949D01*
X253555Y359002D01*
X253652Y359063D01*
X253753Y359116D01*
X253827Y359175D01*
X253972Y359267D01*
X254214Y359483D01*
X254286Y359541D01*
X255069Y360324D01*
X259320Y362085D01*
X263920Y362085D01*
X268171Y360324D01*
X268954Y359541D01*
X269041Y359467D01*
X269121Y359386D01*
X269228Y359308D01*
X269330Y359222D01*
X269427Y359163D01*
X269520Y359096D01*
X269638Y359036D01*
X269752Y358967D01*
X269858Y358925D01*
X269960Y358873D01*
X270087Y358833D01*
X270210Y358784D01*
X270322Y358759D01*
X270431Y358725D01*
X270524Y358715D01*
X270692Y358677D01*
X271016Y358659D01*
X271108Y358649D01*
X351192Y358649D01*
X351305Y358658D01*
X351420Y358657D01*
X351551Y358678D01*
X351683Y358689D01*
X351794Y358716D01*
X351907Y358734D01*
X352033Y358775D01*
X352162Y358807D01*
X352267Y358852D01*
X352376Y358888D01*
X352493Y358949D01*
X352615Y359002D01*
X352712Y359063D01*
X352813Y359116D01*
X352887Y359175D01*
X353032Y359267D01*
X353274Y359483D01*
X353346Y359541D01*
X354129Y360324D01*
X358380Y362085D01*
X362980Y362085D01*
X367231Y360324D01*
X368014Y359541D01*
X368101Y359467D01*
X368181Y359386D01*
X368288Y359308D01*
X368390Y359222D01*
X368487Y359163D01*
X368580Y359096D01*
X368698Y359036D01*
X368812Y358967D01*
X368918Y358925D01*
X369020Y358873D01*
X369147Y358833D01*
X369270Y358784D01*
X369382Y358759D01*
X369491Y358725D01*
X369584Y358715D01*
X369752Y358677D01*
X370076Y358659D01*
X370168Y358649D01*
X450252Y358649D01*
X450365Y358658D01*
X450480Y358657D01*
X450611Y358678D01*
X450743Y358689D01*
X450854Y358716D01*
X450967Y358734D01*
X451093Y358775D01*
X451222Y358807D01*
X451327Y358852D01*
X451436Y358888D01*
X451553Y358949D01*
X451675Y359002D01*
X451772Y359063D01*
X451873Y359116D01*
X451947Y359175D01*
X452092Y359267D01*
X452334Y359483D01*
X452406Y359541D01*
X453189Y360324D01*
X457440Y362085D01*
X462040Y362085D01*
X466291Y360324D01*
X469544Y357071D01*
X471305Y352820D01*
X471305Y348220D01*
X469544Y343969D01*
X466291Y340716D01*
X462040Y338955D01*
X457440Y338955D01*
X453189Y340716D01*
X452406Y341499D01*
X452319Y341573D01*
X452239Y341654D01*
X452132Y341732D01*
X452030Y341818D01*
X451933Y341877D01*
X451840Y341944D01*
X451722Y342004D01*
X451608Y342073D01*
X451502Y342115D01*
X451400Y342167D01*
X451273Y342207D01*
X451150Y342256D01*
X451038Y342281D01*
X450929Y342315D01*
X450836Y342325D01*
X450668Y342363D01*
X450344Y342381D01*
X450252Y342391D01*
X370168Y342391D01*
X370055Y342382D01*
X369940Y342383D01*
X369809Y342362D01*
X369677Y342351D01*
X369566Y342324D01*
X369453Y342306D01*
X369327Y342265D01*
X369198Y342233D01*
X369093Y342188D01*
X368984Y342152D01*
X368867Y342091D01*
X368745Y342038D01*
X368648Y341977D01*
X368547Y341924D01*
X368473Y341865D01*
X368328Y341773D01*
X368086Y341557D01*
X368014Y341499D01*
X367231Y340716D01*
X362980Y338955D01*
X358380Y338955D01*
X354129Y340716D01*
X353346Y341499D01*
X353259Y341573D01*
X353179Y341654D01*
X353072Y341732D01*
X352970Y341818D01*
X352873Y341877D01*
X352780Y341944D01*
X352662Y342004D01*
X352548Y342073D01*
X352442Y342115D01*
X352340Y342167D01*
X352213Y342207D01*
X352090Y342256D01*
X351978Y342281D01*
X351869Y342315D01*
X351776Y342325D01*
X351608Y342363D01*
X351284Y342381D01*
X351192Y342391D01*
X271108Y342391D01*
X270995Y342382D01*
X270880Y342383D01*
X270749Y342362D01*
X270617Y342351D01*
X270506Y342324D01*
X270393Y342306D01*
X270267Y342265D01*
X270138Y342233D01*
X270033Y342188D01*
X269924Y342152D01*
X269807Y342091D01*
X269685Y342038D01*
X269588Y341977D01*
X269487Y341924D01*
X269413Y341865D01*
X269268Y341773D01*
X269026Y341557D01*
X268954Y341499D01*
X268171Y340716D01*
X263920Y338955D01*
X259320Y338955D01*
X255069Y340716D01*
X254286Y341499D01*
X254199Y341573D01*
X254119Y341654D01*
X254012Y341732D01*
X253910Y341818D01*
X253813Y341877D01*
X253720Y341944D01*
X253602Y342004D01*
X253488Y342073D01*
X253382Y342115D01*
X253280Y342167D01*
X253153Y342207D01*
X253030Y342256D01*
X252918Y342281D01*
X252809Y342315D01*
X252716Y342325D01*
X252548Y342363D01*
X252224Y342381D01*
X252132Y342391D01*
X156808Y342391D01*
X156695Y342382D01*
X156580Y342383D01*
X156449Y342362D01*
X156317Y342351D01*
X156206Y342324D01*
X156093Y342306D01*
X155967Y342265D01*
X155838Y342233D01*
X155733Y342188D01*
X155625Y342152D01*
X155507Y342090D01*
X155385Y342038D01*
X155288Y341977D01*
X155187Y341924D01*
X155113Y341865D01*
X154968Y341773D01*
X154726Y341557D01*
X154654Y341499D01*
X153871Y340716D01*
X149620Y338955D01*
X145020Y338955D01*
G37*
%LPD*%
%LPC*%
G36*
X147560Y211955D02*
X147560Y211955D01*
X143309Y213716D01*
X140056Y216969D01*
X138295Y221220D01*
X138295Y225820D01*
X140056Y230071D01*
X143309Y233324D01*
X147560Y235085D01*
X152160Y235085D01*
X156411Y233324D01*
X157194Y232541D01*
X157281Y232467D01*
X157361Y232386D01*
X157468Y232308D01*
X157570Y232222D01*
X157668Y232163D01*
X157760Y232096D01*
X157878Y232036D01*
X157992Y231967D01*
X158098Y231925D01*
X158200Y231873D01*
X158327Y231833D01*
X158450Y231784D01*
X158562Y231759D01*
X158671Y231725D01*
X158764Y231715D01*
X158932Y231677D01*
X159256Y231659D01*
X159348Y231649D01*
X249592Y231649D01*
X249705Y231658D01*
X249820Y231657D01*
X249951Y231678D01*
X250083Y231689D01*
X250194Y231716D01*
X250307Y231734D01*
X250433Y231775D01*
X250562Y231807D01*
X250667Y231852D01*
X250775Y231888D01*
X250893Y231950D01*
X251015Y232002D01*
X251112Y232063D01*
X251213Y232116D01*
X251287Y232175D01*
X251432Y232267D01*
X251674Y232483D01*
X251746Y232541D01*
X252529Y233324D01*
X256780Y235085D01*
X261380Y235085D01*
X265631Y233324D01*
X266414Y232541D01*
X266501Y232467D01*
X266581Y232386D01*
X266688Y232308D01*
X266790Y232222D01*
X266888Y232163D01*
X266980Y232096D01*
X267098Y232036D01*
X267212Y231967D01*
X267318Y231925D01*
X267420Y231873D01*
X267547Y231833D01*
X267670Y231784D01*
X267782Y231759D01*
X267891Y231725D01*
X267984Y231715D01*
X268152Y231677D01*
X268476Y231659D01*
X268568Y231649D01*
X353732Y231649D01*
X353845Y231658D01*
X353960Y231657D01*
X354091Y231678D01*
X354223Y231689D01*
X354334Y231716D01*
X354447Y231734D01*
X354573Y231775D01*
X354702Y231807D01*
X354807Y231852D01*
X354915Y231888D01*
X355033Y231950D01*
X355155Y232002D01*
X355252Y232063D01*
X355353Y232116D01*
X355427Y232175D01*
X355572Y232267D01*
X355814Y232483D01*
X355886Y232541D01*
X356669Y233324D01*
X360920Y235085D01*
X365520Y235085D01*
X369771Y233324D01*
X370554Y232541D01*
X370641Y232467D01*
X370721Y232386D01*
X370828Y232308D01*
X370930Y232222D01*
X371028Y232163D01*
X371120Y232096D01*
X371238Y232036D01*
X371352Y231967D01*
X371458Y231925D01*
X371560Y231873D01*
X371687Y231833D01*
X371810Y231784D01*
X371922Y231759D01*
X372031Y231725D01*
X372124Y231715D01*
X372292Y231677D01*
X372616Y231659D01*
X372708Y231649D01*
X450252Y231649D01*
X450365Y231658D01*
X450480Y231657D01*
X450611Y231678D01*
X450743Y231689D01*
X450854Y231716D01*
X450967Y231734D01*
X451093Y231775D01*
X451222Y231807D01*
X451327Y231852D01*
X451436Y231888D01*
X451553Y231949D01*
X451675Y232002D01*
X451772Y232063D01*
X451873Y232116D01*
X451947Y232175D01*
X452092Y232267D01*
X452334Y232483D01*
X452406Y232541D01*
X453189Y233324D01*
X457440Y235085D01*
X462040Y235085D01*
X466291Y233324D01*
X469544Y230071D01*
X471305Y225820D01*
X471305Y221220D01*
X469544Y216969D01*
X466291Y213716D01*
X462040Y211955D01*
X457440Y211955D01*
X453189Y213716D01*
X452406Y214499D01*
X452319Y214573D01*
X452239Y214654D01*
X452132Y214732D01*
X452030Y214818D01*
X451933Y214877D01*
X451840Y214944D01*
X451722Y215004D01*
X451608Y215073D01*
X451502Y215115D01*
X451400Y215167D01*
X451273Y215207D01*
X451150Y215256D01*
X451038Y215281D01*
X450929Y215315D01*
X450836Y215325D01*
X450668Y215363D01*
X450344Y215381D01*
X450252Y215391D01*
X372708Y215391D01*
X372595Y215382D01*
X372480Y215383D01*
X372349Y215362D01*
X372217Y215351D01*
X372106Y215324D01*
X371993Y215306D01*
X371867Y215265D01*
X371738Y215233D01*
X371633Y215188D01*
X371525Y215152D01*
X371407Y215090D01*
X371285Y215038D01*
X371188Y214977D01*
X371087Y214924D01*
X371013Y214865D01*
X370868Y214773D01*
X370626Y214557D01*
X370554Y214499D01*
X369771Y213716D01*
X365520Y211955D01*
X360920Y211955D01*
X356669Y213716D01*
X355886Y214499D01*
X355799Y214573D01*
X355719Y214654D01*
X355612Y214732D01*
X355510Y214818D01*
X355412Y214877D01*
X355320Y214944D01*
X355202Y215004D01*
X355088Y215073D01*
X354982Y215115D01*
X354880Y215167D01*
X354753Y215207D01*
X354630Y215256D01*
X354518Y215281D01*
X354409Y215315D01*
X354316Y215325D01*
X354148Y215363D01*
X353824Y215381D01*
X353732Y215391D01*
X268568Y215391D01*
X268455Y215382D01*
X268340Y215383D01*
X268209Y215362D01*
X268077Y215351D01*
X267966Y215324D01*
X267853Y215306D01*
X267727Y215265D01*
X267598Y215233D01*
X267493Y215188D01*
X267385Y215152D01*
X267267Y215090D01*
X267145Y215038D01*
X267048Y214977D01*
X266947Y214924D01*
X266873Y214865D01*
X266728Y214773D01*
X266486Y214557D01*
X266414Y214499D01*
X265631Y213716D01*
X261380Y211955D01*
X256780Y211955D01*
X252529Y213716D01*
X251746Y214499D01*
X251659Y214573D01*
X251579Y214654D01*
X251472Y214732D01*
X251370Y214818D01*
X251272Y214877D01*
X251180Y214944D01*
X251062Y215004D01*
X250948Y215073D01*
X250842Y215115D01*
X250740Y215167D01*
X250613Y215207D01*
X250490Y215256D01*
X250378Y215281D01*
X250269Y215315D01*
X250176Y215325D01*
X250008Y215363D01*
X249684Y215381D01*
X249592Y215391D01*
X159569Y215391D01*
X159456Y215382D01*
X159341Y215383D01*
X159210Y215362D01*
X159078Y215351D01*
X158967Y215324D01*
X158854Y215306D01*
X158728Y215265D01*
X158599Y215233D01*
X158494Y215188D01*
X158385Y215152D01*
X158267Y215090D01*
X158145Y215038D01*
X158049Y214977D01*
X157948Y214924D01*
X157874Y214865D01*
X157729Y214773D01*
X157487Y214557D01*
X157415Y214499D01*
X156968Y214052D01*
X156961Y214049D01*
X156749Y213940D01*
X156741Y213934D01*
X156732Y213929D01*
X156700Y213904D01*
X156490Y213749D01*
X152160Y211955D01*
X147560Y211955D01*
G37*
%LPD*%
%LPC*%
G36*
X515482Y245617D02*
X515482Y245617D01*
X510534Y247667D01*
X506747Y251454D01*
X504697Y256402D01*
X504697Y261758D01*
X506747Y266706D01*
X509666Y269625D01*
X509715Y269683D01*
X509771Y269736D01*
X509875Y269871D01*
X509986Y270001D01*
X510025Y270066D01*
X510071Y270127D01*
X510152Y270277D01*
X510240Y270424D01*
X510268Y270495D01*
X510304Y270562D01*
X510360Y270723D01*
X510423Y270882D01*
X510440Y270956D01*
X510464Y271028D01*
X510493Y271197D01*
X510530Y271364D01*
X510534Y271440D01*
X510547Y271515D01*
X510548Y271686D01*
X510558Y271856D01*
X510550Y271932D01*
X510550Y272008D01*
X510524Y272177D01*
X510505Y272347D01*
X510485Y272420D01*
X510473Y272495D01*
X510420Y272658D01*
X510375Y272822D01*
X510343Y272892D01*
X510319Y272964D01*
X510240Y273115D01*
X510169Y273271D01*
X510127Y273334D01*
X510091Y273402D01*
X510026Y273484D01*
X509894Y273680D01*
X509732Y273852D01*
X509666Y273935D01*
X506747Y276854D01*
X504697Y281802D01*
X504697Y287158D01*
X506747Y292106D01*
X509666Y295025D01*
X509715Y295083D01*
X509771Y295136D01*
X509875Y295271D01*
X509986Y295401D01*
X510025Y295466D01*
X510071Y295527D01*
X510152Y295677D01*
X510240Y295824D01*
X510268Y295895D01*
X510304Y295962D01*
X510360Y296123D01*
X510423Y296282D01*
X510440Y296356D01*
X510464Y296428D01*
X510493Y296597D01*
X510530Y296764D01*
X510534Y296840D01*
X510547Y296915D01*
X510548Y297086D01*
X510558Y297256D01*
X510550Y297332D01*
X510550Y297408D01*
X510524Y297577D01*
X510505Y297747D01*
X510485Y297820D01*
X510473Y297895D01*
X510420Y298058D01*
X510375Y298222D01*
X510343Y298292D01*
X510319Y298364D01*
X510240Y298515D01*
X510169Y298671D01*
X510127Y298734D01*
X510091Y298802D01*
X510026Y298884D01*
X509894Y299080D01*
X509732Y299252D01*
X509666Y299335D01*
X506747Y302254D01*
X504697Y307202D01*
X504697Y312558D01*
X506747Y317506D01*
X509666Y320425D01*
X509715Y320483D01*
X509771Y320535D01*
X509875Y320671D01*
X509986Y320801D01*
X510025Y320867D01*
X510071Y320927D01*
X510152Y321077D01*
X510240Y321224D01*
X510268Y321294D01*
X510304Y321362D01*
X510360Y321523D01*
X510423Y321682D01*
X510440Y321756D01*
X510464Y321828D01*
X510493Y321997D01*
X510530Y322163D01*
X510534Y322240D01*
X510547Y322315D01*
X510548Y322486D01*
X510558Y322656D01*
X510550Y322732D01*
X510550Y322808D01*
X510524Y322977D01*
X510505Y323147D01*
X510485Y323220D01*
X510473Y323295D01*
X510420Y323458D01*
X510375Y323622D01*
X510343Y323692D01*
X510319Y323764D01*
X510240Y323916D01*
X510169Y324071D01*
X510127Y324134D01*
X510091Y324202D01*
X510026Y324284D01*
X509894Y324480D01*
X509732Y324652D01*
X509666Y324735D01*
X506747Y327654D01*
X504697Y332602D01*
X504697Y337958D01*
X506747Y342906D01*
X509666Y345825D01*
X509715Y345883D01*
X509771Y345935D01*
X509875Y346071D01*
X509986Y346201D01*
X510025Y346267D01*
X510071Y346327D01*
X510152Y346477D01*
X510240Y346624D01*
X510268Y346694D01*
X510304Y346762D01*
X510360Y346923D01*
X510423Y347082D01*
X510440Y347156D01*
X510464Y347228D01*
X510493Y347397D01*
X510530Y347563D01*
X510534Y347640D01*
X510547Y347715D01*
X510548Y347886D01*
X510558Y348056D01*
X510550Y348132D01*
X510550Y348208D01*
X510524Y348377D01*
X510505Y348547D01*
X510485Y348620D01*
X510473Y348695D01*
X510420Y348858D01*
X510375Y349022D01*
X510343Y349092D01*
X510319Y349164D01*
X510240Y349316D01*
X510169Y349471D01*
X510127Y349534D01*
X510091Y349602D01*
X510026Y349684D01*
X509894Y349880D01*
X509732Y350052D01*
X509666Y350135D01*
X506747Y353054D01*
X504697Y358002D01*
X504697Y363358D01*
X506747Y368306D01*
X509666Y371225D01*
X509715Y371283D01*
X509771Y371335D01*
X509875Y371471D01*
X509986Y371601D01*
X510025Y371667D01*
X510071Y371727D01*
X510152Y371877D01*
X510240Y372024D01*
X510268Y372094D01*
X510304Y372162D01*
X510360Y372323D01*
X510423Y372482D01*
X510440Y372556D01*
X510464Y372628D01*
X510493Y372797D01*
X510530Y372963D01*
X510534Y373040D01*
X510547Y373115D01*
X510548Y373286D01*
X510558Y373456D01*
X510550Y373532D01*
X510550Y373608D01*
X510524Y373777D01*
X510505Y373947D01*
X510485Y374020D01*
X510473Y374095D01*
X510420Y374258D01*
X510375Y374422D01*
X510343Y374492D01*
X510319Y374564D01*
X510240Y374716D01*
X510169Y374871D01*
X510127Y374934D01*
X510091Y375002D01*
X510026Y375084D01*
X509894Y375280D01*
X509732Y375452D01*
X509666Y375535D01*
X506747Y378454D01*
X504697Y383402D01*
X504697Y388758D01*
X506747Y393706D01*
X509666Y396625D01*
X509715Y396683D01*
X509771Y396735D01*
X509875Y396871D01*
X509986Y397001D01*
X510025Y397067D01*
X510071Y397127D01*
X510152Y397277D01*
X510240Y397424D01*
X510268Y397494D01*
X510304Y397562D01*
X510360Y397723D01*
X510423Y397882D01*
X510440Y397956D01*
X510464Y398028D01*
X510493Y398197D01*
X510530Y398363D01*
X510534Y398440D01*
X510547Y398515D01*
X510548Y398686D01*
X510558Y398856D01*
X510550Y398932D01*
X510550Y399008D01*
X510524Y399177D01*
X510505Y399347D01*
X510485Y399420D01*
X510473Y399495D01*
X510420Y399658D01*
X510375Y399822D01*
X510343Y399892D01*
X510319Y399964D01*
X510240Y400116D01*
X510169Y400271D01*
X510127Y400334D01*
X510091Y400402D01*
X510026Y400484D01*
X509894Y400680D01*
X509732Y400852D01*
X509666Y400935D01*
X506747Y403854D01*
X504697Y408802D01*
X504697Y414158D01*
X506747Y419106D01*
X509666Y422025D01*
X509715Y422083D01*
X509771Y422135D01*
X509875Y422271D01*
X509986Y422401D01*
X510025Y422467D01*
X510071Y422527D01*
X510152Y422677D01*
X510240Y422824D01*
X510268Y422894D01*
X510304Y422962D01*
X510360Y423123D01*
X510423Y423282D01*
X510440Y423356D01*
X510464Y423428D01*
X510493Y423597D01*
X510530Y423763D01*
X510534Y423840D01*
X510547Y423915D01*
X510548Y424086D01*
X510558Y424256D01*
X510550Y424332D01*
X510550Y424408D01*
X510524Y424577D01*
X510505Y424747D01*
X510485Y424820D01*
X510473Y424895D01*
X510420Y425058D01*
X510375Y425222D01*
X510343Y425292D01*
X510319Y425364D01*
X510240Y425516D01*
X510169Y425671D01*
X510127Y425734D01*
X510091Y425802D01*
X510026Y425884D01*
X509894Y426080D01*
X509732Y426252D01*
X509666Y426335D01*
X506747Y429254D01*
X504697Y434202D01*
X504697Y439558D01*
X506747Y444506D01*
X510534Y448293D01*
X515482Y450343D01*
X520838Y450343D01*
X525786Y448293D01*
X529573Y444506D01*
X531623Y439558D01*
X531623Y434202D01*
X529573Y429254D01*
X526654Y426335D01*
X526605Y426277D01*
X526549Y426224D01*
X526445Y426089D01*
X526334Y425959D01*
X526295Y425894D01*
X526249Y425833D01*
X526168Y425683D01*
X526080Y425536D01*
X526052Y425465D01*
X526016Y425398D01*
X525960Y425237D01*
X525897Y425078D01*
X525880Y425004D01*
X525856Y424932D01*
X525827Y424763D01*
X525790Y424596D01*
X525786Y424520D01*
X525773Y424445D01*
X525772Y424274D01*
X525762Y424104D01*
X525770Y424028D01*
X525770Y423952D01*
X525796Y423783D01*
X525815Y423613D01*
X525835Y423540D01*
X525847Y423465D01*
X525900Y423302D01*
X525945Y423138D01*
X525977Y423068D01*
X526001Y422996D01*
X526080Y422845D01*
X526151Y422689D01*
X526193Y422626D01*
X526229Y422558D01*
X526294Y422476D01*
X526426Y422280D01*
X526588Y422108D01*
X526654Y422025D01*
X529573Y419106D01*
X531623Y414158D01*
X531623Y408802D01*
X529573Y403854D01*
X526654Y400935D01*
X526605Y400877D01*
X526549Y400824D01*
X526445Y400689D01*
X526334Y400559D01*
X526295Y400494D01*
X526249Y400433D01*
X526168Y400283D01*
X526080Y400136D01*
X526052Y400065D01*
X526016Y399998D01*
X525960Y399837D01*
X525897Y399678D01*
X525880Y399604D01*
X525856Y399532D01*
X525827Y399363D01*
X525790Y399196D01*
X525786Y399120D01*
X525773Y399045D01*
X525772Y398874D01*
X525762Y398704D01*
X525770Y398628D01*
X525770Y398552D01*
X525796Y398383D01*
X525815Y398213D01*
X525835Y398140D01*
X525847Y398065D01*
X525900Y397902D01*
X525945Y397738D01*
X525977Y397668D01*
X526001Y397596D01*
X526080Y397445D01*
X526151Y397289D01*
X526193Y397226D01*
X526229Y397158D01*
X526294Y397076D01*
X526426Y396880D01*
X526588Y396708D01*
X526654Y396625D01*
X529573Y393706D01*
X531623Y388758D01*
X531623Y383402D01*
X529573Y378454D01*
X526654Y375535D01*
X526605Y375477D01*
X526549Y375424D01*
X526445Y375289D01*
X526334Y375159D01*
X526295Y375094D01*
X526249Y375033D01*
X526168Y374883D01*
X526080Y374736D01*
X526052Y374665D01*
X526016Y374598D01*
X525960Y374437D01*
X525897Y374278D01*
X525880Y374204D01*
X525856Y374132D01*
X525827Y373963D01*
X525790Y373796D01*
X525786Y373720D01*
X525773Y373645D01*
X525772Y373474D01*
X525762Y373304D01*
X525770Y373228D01*
X525770Y373152D01*
X525796Y372983D01*
X525815Y372813D01*
X525835Y372740D01*
X525847Y372665D01*
X525900Y372502D01*
X525945Y372338D01*
X525977Y372268D01*
X526001Y372196D01*
X526080Y372045D01*
X526151Y371889D01*
X526193Y371826D01*
X526229Y371758D01*
X526294Y371676D01*
X526426Y371480D01*
X526588Y371308D01*
X526654Y371225D01*
X529573Y368306D01*
X531623Y363358D01*
X531623Y358002D01*
X529573Y353054D01*
X526654Y350135D01*
X526605Y350077D01*
X526549Y350024D01*
X526445Y349889D01*
X526334Y349759D01*
X526295Y349694D01*
X526249Y349633D01*
X526168Y349483D01*
X526080Y349336D01*
X526052Y349265D01*
X526016Y349198D01*
X525960Y349037D01*
X525897Y348878D01*
X525880Y348804D01*
X525856Y348732D01*
X525827Y348563D01*
X525790Y348396D01*
X525786Y348320D01*
X525773Y348245D01*
X525772Y348074D01*
X525762Y347904D01*
X525770Y347828D01*
X525770Y347752D01*
X525796Y347583D01*
X525815Y347413D01*
X525835Y347340D01*
X525847Y347265D01*
X525900Y347102D01*
X525945Y346938D01*
X525977Y346868D01*
X526001Y346796D01*
X526080Y346645D01*
X526151Y346489D01*
X526193Y346426D01*
X526229Y346358D01*
X526294Y346276D01*
X526426Y346080D01*
X526588Y345908D01*
X526654Y345825D01*
X529573Y342906D01*
X531623Y337958D01*
X531623Y332602D01*
X529573Y327654D01*
X526654Y324735D01*
X526605Y324677D01*
X526549Y324624D01*
X526445Y324489D01*
X526334Y324359D01*
X526295Y324294D01*
X526249Y324233D01*
X526168Y324083D01*
X526080Y323936D01*
X526052Y323865D01*
X526016Y323798D01*
X525960Y323637D01*
X525897Y323478D01*
X525880Y323404D01*
X525856Y323332D01*
X525827Y323163D01*
X525790Y322996D01*
X525786Y322920D01*
X525773Y322845D01*
X525772Y322674D01*
X525762Y322504D01*
X525770Y322428D01*
X525770Y322352D01*
X525796Y322183D01*
X525815Y322013D01*
X525835Y321940D01*
X525847Y321865D01*
X525900Y321702D01*
X525945Y321538D01*
X525977Y321468D01*
X526001Y321396D01*
X526080Y321245D01*
X526151Y321089D01*
X526193Y321026D01*
X526229Y320958D01*
X526294Y320876D01*
X526426Y320680D01*
X526588Y320508D01*
X526654Y320425D01*
X529573Y317506D01*
X531623Y312558D01*
X531623Y307202D01*
X529573Y302254D01*
X526654Y299335D01*
X526605Y299277D01*
X526549Y299225D01*
X526445Y299089D01*
X526334Y298959D01*
X526295Y298893D01*
X526249Y298833D01*
X526168Y298683D01*
X526080Y298536D01*
X526052Y298466D01*
X526016Y298398D01*
X525960Y298237D01*
X525897Y298078D01*
X525880Y298004D01*
X525856Y297932D01*
X525827Y297763D01*
X525790Y297597D01*
X525786Y297520D01*
X525773Y297445D01*
X525772Y297274D01*
X525762Y297104D01*
X525770Y297028D01*
X525770Y296952D01*
X525796Y296783D01*
X525815Y296613D01*
X525835Y296540D01*
X525847Y296465D01*
X525900Y296302D01*
X525945Y296138D01*
X525977Y296068D01*
X526001Y295996D01*
X526080Y295844D01*
X526151Y295689D01*
X526193Y295626D01*
X526229Y295558D01*
X526294Y295476D01*
X526426Y295280D01*
X526588Y295108D01*
X526654Y295025D01*
X529573Y292106D01*
X531623Y287158D01*
X531623Y281802D01*
X529573Y276854D01*
X526654Y273935D01*
X526605Y273877D01*
X526549Y273825D01*
X526445Y273689D01*
X526334Y273559D01*
X526295Y273493D01*
X526249Y273433D01*
X526168Y273283D01*
X526080Y273136D01*
X526052Y273066D01*
X526016Y272998D01*
X525960Y272837D01*
X525897Y272678D01*
X525880Y272604D01*
X525856Y272532D01*
X525827Y272363D01*
X525790Y272197D01*
X525786Y272120D01*
X525773Y272045D01*
X525772Y271874D01*
X525762Y271704D01*
X525770Y271628D01*
X525770Y271552D01*
X525796Y271383D01*
X525815Y271213D01*
X525835Y271140D01*
X525847Y271065D01*
X525900Y270902D01*
X525945Y270738D01*
X525977Y270668D01*
X526001Y270596D01*
X526080Y270444D01*
X526151Y270289D01*
X526193Y270226D01*
X526229Y270158D01*
X526294Y270076D01*
X526426Y269880D01*
X526588Y269708D01*
X526654Y269625D01*
X529573Y266706D01*
X531623Y261758D01*
X531623Y256402D01*
X529573Y251454D01*
X525786Y247667D01*
X520838Y245617D01*
X515482Y245617D01*
G37*
%LPD*%
G36*
X3238Y653355D02*
X3238Y653355D01*
X3276Y653354D01*
X3483Y653387D01*
X3689Y653414D01*
X3726Y653425D01*
X3763Y653431D01*
X3962Y653496D01*
X4161Y653557D01*
X4196Y653573D01*
X4232Y653585D01*
X4417Y653682D01*
X4605Y653774D01*
X4636Y653796D01*
X4670Y653813D01*
X4742Y653871D01*
X5007Y654059D01*
X5129Y654180D01*
X5203Y654238D01*
X23335Y672371D01*
X26371Y673628D01*
X26431Y673638D01*
X26563Y673649D01*
X26674Y673676D01*
X26787Y673694D01*
X26913Y673735D01*
X27042Y673767D01*
X27147Y673812D01*
X27255Y673848D01*
X27373Y673909D01*
X27495Y673962D01*
X27592Y674023D01*
X27693Y674076D01*
X27766Y674135D01*
X27912Y674227D01*
X28153Y674443D01*
X28226Y674501D01*
X28482Y674757D01*
X28507Y674786D01*
X28535Y674812D01*
X28666Y674974D01*
X28802Y675133D01*
X28821Y675166D01*
X28845Y675196D01*
X28948Y675377D01*
X29056Y675556D01*
X29070Y675591D01*
X29089Y675624D01*
X29162Y675820D01*
X29239Y676014D01*
X29248Y676051D01*
X29261Y676087D01*
X29301Y676291D01*
X29346Y676495D01*
X29348Y676534D01*
X29356Y676571D01*
X29362Y676779D01*
X29374Y676988D01*
X29370Y677026D01*
X29371Y677064D01*
X29344Y677271D01*
X29322Y677478D01*
X29312Y677515D01*
X29307Y677553D01*
X29246Y677753D01*
X29191Y677954D01*
X29175Y677989D01*
X29164Y678026D01*
X29073Y678212D01*
X28985Y678403D01*
X28964Y678434D01*
X28947Y678469D01*
X28827Y678639D01*
X28710Y678812D01*
X28684Y678840D01*
X28662Y678871D01*
X28515Y679019D01*
X28372Y679171D01*
X28342Y679195D01*
X28315Y679222D01*
X28147Y679345D01*
X27981Y679472D01*
X27947Y679490D01*
X27916Y679512D01*
X27730Y679606D01*
X27546Y679705D01*
X27510Y679717D01*
X27476Y679735D01*
X27276Y679797D01*
X27079Y679865D01*
X27042Y679871D01*
X27005Y679883D01*
X26913Y679893D01*
X26593Y679948D01*
X26421Y679949D01*
X26328Y679959D01*
X3048Y679959D01*
X2972Y679953D01*
X2896Y679955D01*
X2727Y679933D01*
X2556Y679919D01*
X2482Y679901D01*
X2407Y679891D01*
X2243Y679842D01*
X2077Y679801D01*
X2008Y679771D01*
X1934Y679749D01*
X1781Y679673D01*
X1624Y679606D01*
X1560Y679565D01*
X1491Y679532D01*
X1352Y679433D01*
X1208Y679341D01*
X1151Y679290D01*
X1089Y679246D01*
X968Y679126D01*
X840Y679012D01*
X792Y678953D01*
X738Y678899D01*
X637Y678761D01*
X530Y678628D01*
X493Y678562D01*
X448Y678501D01*
X371Y678348D01*
X286Y678200D01*
X260Y678128D01*
X225Y678060D01*
X174Y677897D01*
X115Y677737D01*
X100Y677662D01*
X77Y677590D01*
X65Y677485D01*
X20Y677253D01*
X13Y677017D01*
X1Y676912D01*
X1Y656393D01*
X4Y656355D01*
X2Y656317D01*
X24Y656109D01*
X41Y655901D01*
X50Y655864D01*
X54Y655827D01*
X109Y655625D01*
X159Y655423D01*
X174Y655388D01*
X185Y655351D01*
X272Y655161D01*
X354Y654969D01*
X374Y654937D01*
X390Y654902D01*
X507Y654729D01*
X619Y654553D01*
X644Y654525D01*
X666Y654493D01*
X809Y654341D01*
X948Y654185D01*
X977Y654161D01*
X1003Y654134D01*
X1169Y654006D01*
X1332Y653875D01*
X1365Y653857D01*
X1395Y653833D01*
X1579Y653735D01*
X1760Y653631D01*
X1796Y653618D01*
X1830Y653600D01*
X2027Y653532D01*
X2223Y653460D01*
X2260Y653452D01*
X2296Y653440D01*
X2503Y653405D01*
X2707Y653365D01*
X2745Y653364D01*
X2783Y653358D01*
X2992Y653356D01*
X3200Y653350D01*
X3238Y653355D01*
G37*
G36*
X506666Y547106D02*
X506666Y547106D01*
X506704Y547106D01*
X506911Y547138D01*
X507117Y547166D01*
X507154Y547177D01*
X507191Y547183D01*
X507390Y547248D01*
X507589Y547308D01*
X507624Y547325D01*
X507660Y547337D01*
X507845Y547433D01*
X508033Y547525D01*
X508064Y547547D01*
X508098Y547565D01*
X508170Y547623D01*
X508435Y547810D01*
X508557Y547931D01*
X508631Y547990D01*
X509666Y549025D01*
X509715Y549083D01*
X509771Y549135D01*
X509875Y549271D01*
X509986Y549401D01*
X510025Y549466D01*
X510071Y549527D01*
X510152Y549677D01*
X510240Y549824D01*
X510268Y549895D01*
X510304Y549962D01*
X510360Y550123D01*
X510423Y550282D01*
X510440Y550356D01*
X510464Y550428D01*
X510493Y550597D01*
X510530Y550763D01*
X510534Y550839D01*
X510547Y550915D01*
X510548Y551086D01*
X510558Y551256D01*
X510550Y551332D01*
X510550Y551408D01*
X510524Y551577D01*
X510505Y551747D01*
X510485Y551820D01*
X510473Y551895D01*
X510420Y552057D01*
X510375Y552222D01*
X510343Y552292D01*
X510319Y552364D01*
X510240Y552515D01*
X510169Y552671D01*
X510127Y552734D01*
X510091Y552801D01*
X510026Y552884D01*
X509894Y553080D01*
X509732Y553252D01*
X509666Y553335D01*
X508631Y554370D01*
X508602Y554395D01*
X508576Y554423D01*
X508414Y554554D01*
X508255Y554690D01*
X508222Y554709D01*
X508192Y554733D01*
X508011Y554836D01*
X507832Y554944D01*
X507797Y554958D01*
X507764Y554977D01*
X507568Y555050D01*
X507374Y555127D01*
X507337Y555136D01*
X507301Y555149D01*
X507097Y555189D01*
X506893Y555234D01*
X506854Y555236D01*
X506817Y555243D01*
X506609Y555250D01*
X506400Y555262D01*
X506362Y555258D01*
X506324Y555259D01*
X506118Y555232D01*
X505909Y555210D01*
X505873Y555199D01*
X505835Y555194D01*
X505635Y555134D01*
X505434Y555079D01*
X505399Y555063D01*
X505362Y555052D01*
X505175Y554960D01*
X504985Y554873D01*
X504954Y554852D01*
X504919Y554835D01*
X504749Y554714D01*
X504576Y554598D01*
X504548Y554572D01*
X504517Y554550D01*
X504369Y554403D01*
X504216Y554260D01*
X504193Y554230D01*
X504166Y554203D01*
X504043Y554034D01*
X503916Y553869D01*
X503898Y553835D01*
X503876Y553804D01*
X503782Y553618D01*
X503683Y553434D01*
X503671Y553398D01*
X503653Y553364D01*
X503590Y553164D01*
X503523Y552967D01*
X503517Y552930D01*
X503505Y552893D01*
X503495Y552800D01*
X503440Y552481D01*
X503439Y552309D01*
X503429Y552215D01*
X503429Y550145D01*
X503432Y550107D01*
X503430Y550069D01*
X503452Y549861D01*
X503469Y549653D01*
X503478Y549616D01*
X503482Y549578D01*
X503537Y549377D01*
X503587Y549174D01*
X503602Y549139D01*
X503613Y549102D01*
X503700Y548912D01*
X503782Y548721D01*
X503802Y548689D01*
X503818Y548654D01*
X503935Y548480D01*
X504047Y548305D01*
X504072Y548276D01*
X504094Y548245D01*
X504237Y548093D01*
X504376Y547937D01*
X504405Y547913D01*
X504431Y547885D01*
X504597Y547758D01*
X504760Y547627D01*
X504793Y547608D01*
X504823Y547585D01*
X505007Y547486D01*
X505188Y547383D01*
X505224Y547370D01*
X505258Y547352D01*
X505455Y547284D01*
X505651Y547211D01*
X505688Y547204D01*
X505724Y547192D01*
X505931Y547156D01*
X506135Y547117D01*
X506173Y547115D01*
X506211Y547109D01*
X506420Y547108D01*
X506628Y547101D01*
X506666Y547106D01*
G37*
G36*
X506666Y597906D02*
X506666Y597906D01*
X506704Y597906D01*
X506911Y597938D01*
X507117Y597966D01*
X507154Y597977D01*
X507191Y597983D01*
X507390Y598048D01*
X507589Y598108D01*
X507624Y598125D01*
X507660Y598137D01*
X507845Y598233D01*
X508033Y598325D01*
X508064Y598347D01*
X508098Y598365D01*
X508170Y598423D01*
X508435Y598610D01*
X508557Y598731D01*
X508631Y598790D01*
X509666Y599825D01*
X509715Y599883D01*
X509771Y599935D01*
X509875Y600071D01*
X509986Y600201D01*
X510025Y600266D01*
X510071Y600327D01*
X510152Y600477D01*
X510240Y600624D01*
X510268Y600695D01*
X510304Y600762D01*
X510360Y600923D01*
X510423Y601082D01*
X510440Y601156D01*
X510464Y601228D01*
X510493Y601397D01*
X510530Y601563D01*
X510534Y601639D01*
X510547Y601715D01*
X510548Y601886D01*
X510558Y602056D01*
X510550Y602132D01*
X510550Y602208D01*
X510524Y602377D01*
X510505Y602547D01*
X510485Y602620D01*
X510473Y602695D01*
X510420Y602857D01*
X510375Y603022D01*
X510343Y603092D01*
X510319Y603164D01*
X510240Y603315D01*
X510169Y603471D01*
X510127Y603534D01*
X510091Y603601D01*
X510026Y603684D01*
X509894Y603880D01*
X509732Y604052D01*
X509666Y604135D01*
X508631Y605170D01*
X508602Y605195D01*
X508576Y605223D01*
X508414Y605354D01*
X508255Y605490D01*
X508222Y605509D01*
X508192Y605533D01*
X508011Y605636D01*
X507832Y605744D01*
X507797Y605758D01*
X507764Y605777D01*
X507568Y605850D01*
X507374Y605927D01*
X507337Y605936D01*
X507301Y605949D01*
X507097Y605989D01*
X506893Y606034D01*
X506854Y606036D01*
X506817Y606043D01*
X506609Y606050D01*
X506400Y606062D01*
X506362Y606058D01*
X506324Y606059D01*
X506118Y606032D01*
X505909Y606010D01*
X505873Y605999D01*
X505835Y605994D01*
X505635Y605934D01*
X505434Y605879D01*
X505399Y605863D01*
X505362Y605852D01*
X505175Y605760D01*
X504985Y605673D01*
X504954Y605652D01*
X504919Y605635D01*
X504749Y605514D01*
X504576Y605398D01*
X504548Y605372D01*
X504517Y605350D01*
X504369Y605203D01*
X504216Y605060D01*
X504193Y605030D01*
X504166Y605003D01*
X504043Y604834D01*
X503916Y604669D01*
X503898Y604635D01*
X503876Y604604D01*
X503782Y604418D01*
X503683Y604234D01*
X503671Y604198D01*
X503653Y604164D01*
X503590Y603964D01*
X503523Y603767D01*
X503517Y603730D01*
X503505Y603693D01*
X503495Y603600D01*
X503440Y603281D01*
X503439Y603109D01*
X503429Y603015D01*
X503429Y600945D01*
X503432Y600907D01*
X503430Y600869D01*
X503452Y600661D01*
X503469Y600453D01*
X503478Y600416D01*
X503482Y600378D01*
X503537Y600177D01*
X503587Y599974D01*
X503602Y599939D01*
X503613Y599902D01*
X503700Y599712D01*
X503782Y599521D01*
X503802Y599489D01*
X503818Y599454D01*
X503935Y599280D01*
X504047Y599105D01*
X504072Y599076D01*
X504094Y599045D01*
X504237Y598893D01*
X504376Y598737D01*
X504405Y598713D01*
X504431Y598685D01*
X504597Y598558D01*
X504760Y598427D01*
X504793Y598408D01*
X504823Y598385D01*
X505007Y598286D01*
X505188Y598183D01*
X505224Y598170D01*
X505258Y598152D01*
X505455Y598084D01*
X505651Y598011D01*
X505688Y598004D01*
X505724Y597992D01*
X505931Y597956D01*
X506135Y597917D01*
X506173Y597915D01*
X506211Y597909D01*
X506420Y597908D01*
X506628Y597901D01*
X506666Y597906D01*
G37*
G36*
X506666Y572506D02*
X506666Y572506D01*
X506704Y572506D01*
X506911Y572538D01*
X507117Y572566D01*
X507154Y572577D01*
X507191Y572583D01*
X507390Y572648D01*
X507589Y572708D01*
X507624Y572725D01*
X507660Y572737D01*
X507845Y572833D01*
X508033Y572925D01*
X508064Y572947D01*
X508098Y572965D01*
X508170Y573023D01*
X508435Y573210D01*
X508557Y573331D01*
X508631Y573390D01*
X509666Y574425D01*
X509715Y574483D01*
X509771Y574535D01*
X509875Y574671D01*
X509986Y574801D01*
X510025Y574866D01*
X510071Y574927D01*
X510152Y575077D01*
X510240Y575224D01*
X510268Y575295D01*
X510304Y575362D01*
X510360Y575523D01*
X510423Y575682D01*
X510440Y575756D01*
X510464Y575828D01*
X510493Y575997D01*
X510530Y576163D01*
X510534Y576239D01*
X510547Y576315D01*
X510548Y576486D01*
X510558Y576656D01*
X510550Y576732D01*
X510550Y576808D01*
X510524Y576977D01*
X510505Y577147D01*
X510485Y577220D01*
X510473Y577295D01*
X510420Y577457D01*
X510375Y577622D01*
X510343Y577692D01*
X510319Y577764D01*
X510240Y577915D01*
X510169Y578071D01*
X510127Y578134D01*
X510091Y578201D01*
X510026Y578284D01*
X509894Y578480D01*
X509732Y578652D01*
X509666Y578735D01*
X508631Y579770D01*
X508602Y579795D01*
X508576Y579823D01*
X508414Y579954D01*
X508255Y580090D01*
X508222Y580109D01*
X508192Y580133D01*
X508011Y580236D01*
X507832Y580344D01*
X507797Y580358D01*
X507764Y580377D01*
X507568Y580450D01*
X507374Y580527D01*
X507337Y580536D01*
X507301Y580549D01*
X507097Y580589D01*
X506893Y580634D01*
X506854Y580636D01*
X506817Y580643D01*
X506609Y580650D01*
X506400Y580662D01*
X506362Y580658D01*
X506324Y580659D01*
X506118Y580632D01*
X505909Y580610D01*
X505873Y580599D01*
X505835Y580594D01*
X505635Y580534D01*
X505434Y580479D01*
X505399Y580463D01*
X505362Y580452D01*
X505175Y580360D01*
X504985Y580273D01*
X504954Y580252D01*
X504919Y580235D01*
X504749Y580114D01*
X504576Y579998D01*
X504548Y579972D01*
X504517Y579950D01*
X504369Y579803D01*
X504216Y579660D01*
X504193Y579630D01*
X504166Y579603D01*
X504043Y579434D01*
X503916Y579269D01*
X503898Y579235D01*
X503876Y579204D01*
X503782Y579018D01*
X503683Y578834D01*
X503671Y578798D01*
X503653Y578764D01*
X503590Y578564D01*
X503523Y578367D01*
X503517Y578330D01*
X503505Y578293D01*
X503495Y578200D01*
X503440Y577881D01*
X503439Y577709D01*
X503429Y577615D01*
X503429Y575545D01*
X503432Y575507D01*
X503430Y575469D01*
X503452Y575261D01*
X503469Y575053D01*
X503478Y575016D01*
X503482Y574978D01*
X503537Y574777D01*
X503587Y574574D01*
X503602Y574539D01*
X503613Y574502D01*
X503700Y574312D01*
X503782Y574121D01*
X503802Y574089D01*
X503818Y574054D01*
X503935Y573880D01*
X504047Y573705D01*
X504072Y573676D01*
X504094Y573645D01*
X504237Y573493D01*
X504376Y573337D01*
X504405Y573313D01*
X504431Y573285D01*
X504597Y573158D01*
X504760Y573027D01*
X504793Y573008D01*
X504823Y572985D01*
X505007Y572886D01*
X505188Y572783D01*
X505224Y572770D01*
X505258Y572752D01*
X505455Y572684D01*
X505651Y572611D01*
X505688Y572604D01*
X505724Y572592D01*
X505931Y572556D01*
X506135Y572517D01*
X506173Y572515D01*
X506211Y572509D01*
X506420Y572508D01*
X506628Y572501D01*
X506666Y572506D01*
G37*
G36*
X506666Y521706D02*
X506666Y521706D01*
X506704Y521706D01*
X506911Y521738D01*
X507117Y521766D01*
X507154Y521777D01*
X507191Y521783D01*
X507390Y521848D01*
X507589Y521908D01*
X507624Y521925D01*
X507660Y521937D01*
X507845Y522033D01*
X508033Y522125D01*
X508064Y522147D01*
X508098Y522165D01*
X508170Y522223D01*
X508435Y522410D01*
X508557Y522531D01*
X508631Y522590D01*
X509666Y523625D01*
X509715Y523683D01*
X509771Y523735D01*
X509875Y523871D01*
X509986Y524001D01*
X510025Y524066D01*
X510071Y524127D01*
X510152Y524277D01*
X510240Y524424D01*
X510268Y524495D01*
X510304Y524562D01*
X510360Y524723D01*
X510423Y524882D01*
X510440Y524956D01*
X510464Y525028D01*
X510493Y525197D01*
X510530Y525363D01*
X510534Y525439D01*
X510547Y525515D01*
X510548Y525686D01*
X510558Y525856D01*
X510550Y525932D01*
X510550Y526008D01*
X510524Y526177D01*
X510505Y526347D01*
X510485Y526420D01*
X510473Y526495D01*
X510420Y526657D01*
X510375Y526822D01*
X510343Y526892D01*
X510319Y526964D01*
X510240Y527115D01*
X510169Y527271D01*
X510127Y527334D01*
X510091Y527401D01*
X510026Y527484D01*
X509894Y527680D01*
X509732Y527852D01*
X509666Y527935D01*
X508631Y528970D01*
X508602Y528995D01*
X508576Y529023D01*
X508414Y529154D01*
X508255Y529290D01*
X508222Y529309D01*
X508192Y529333D01*
X508011Y529436D01*
X507832Y529544D01*
X507797Y529558D01*
X507764Y529577D01*
X507568Y529650D01*
X507374Y529727D01*
X507337Y529736D01*
X507301Y529749D01*
X507097Y529789D01*
X506893Y529834D01*
X506854Y529836D01*
X506817Y529843D01*
X506609Y529850D01*
X506400Y529862D01*
X506362Y529858D01*
X506324Y529859D01*
X506118Y529832D01*
X505909Y529810D01*
X505873Y529799D01*
X505835Y529794D01*
X505635Y529734D01*
X505434Y529679D01*
X505399Y529663D01*
X505362Y529652D01*
X505175Y529560D01*
X504985Y529473D01*
X504954Y529452D01*
X504919Y529435D01*
X504749Y529314D01*
X504576Y529198D01*
X504548Y529172D01*
X504517Y529150D01*
X504369Y529003D01*
X504216Y528860D01*
X504193Y528830D01*
X504166Y528803D01*
X504043Y528634D01*
X503916Y528469D01*
X503898Y528435D01*
X503876Y528404D01*
X503782Y528218D01*
X503683Y528034D01*
X503671Y527998D01*
X503653Y527964D01*
X503590Y527764D01*
X503523Y527567D01*
X503517Y527530D01*
X503505Y527493D01*
X503495Y527400D01*
X503440Y527081D01*
X503439Y526909D01*
X503429Y526815D01*
X503429Y524745D01*
X503432Y524707D01*
X503430Y524669D01*
X503452Y524461D01*
X503469Y524253D01*
X503478Y524216D01*
X503482Y524178D01*
X503537Y523977D01*
X503587Y523774D01*
X503602Y523739D01*
X503613Y523702D01*
X503700Y523512D01*
X503782Y523321D01*
X503802Y523289D01*
X503818Y523254D01*
X503935Y523080D01*
X504047Y522905D01*
X504072Y522876D01*
X504094Y522845D01*
X504237Y522693D01*
X504376Y522537D01*
X504405Y522513D01*
X504431Y522485D01*
X504597Y522358D01*
X504760Y522227D01*
X504793Y522208D01*
X504823Y522185D01*
X505007Y522086D01*
X505188Y521983D01*
X505224Y521970D01*
X505258Y521952D01*
X505455Y521884D01*
X505651Y521811D01*
X505688Y521804D01*
X505724Y521792D01*
X505931Y521756D01*
X506135Y521717D01*
X506173Y521715D01*
X506211Y521709D01*
X506420Y521708D01*
X506628Y521701D01*
X506666Y521706D01*
G37*
G36*
X506666Y496306D02*
X506666Y496306D01*
X506704Y496306D01*
X506911Y496338D01*
X507117Y496366D01*
X507154Y496377D01*
X507191Y496383D01*
X507390Y496448D01*
X507589Y496508D01*
X507624Y496525D01*
X507660Y496537D01*
X507845Y496633D01*
X508033Y496725D01*
X508064Y496747D01*
X508098Y496765D01*
X508170Y496823D01*
X508435Y497010D01*
X508557Y497131D01*
X508631Y497190D01*
X509666Y498225D01*
X509715Y498283D01*
X509771Y498335D01*
X509875Y498471D01*
X509986Y498601D01*
X510025Y498666D01*
X510071Y498727D01*
X510152Y498877D01*
X510240Y499024D01*
X510268Y499095D01*
X510304Y499162D01*
X510360Y499323D01*
X510423Y499482D01*
X510440Y499556D01*
X510464Y499628D01*
X510493Y499797D01*
X510530Y499963D01*
X510534Y500039D01*
X510547Y500115D01*
X510548Y500286D01*
X510558Y500456D01*
X510550Y500532D01*
X510550Y500608D01*
X510524Y500777D01*
X510505Y500947D01*
X510485Y501020D01*
X510473Y501095D01*
X510420Y501257D01*
X510375Y501422D01*
X510343Y501492D01*
X510319Y501564D01*
X510240Y501715D01*
X510169Y501871D01*
X510127Y501934D01*
X510091Y502001D01*
X510026Y502084D01*
X509894Y502280D01*
X509732Y502452D01*
X509666Y502535D01*
X508631Y503570D01*
X508602Y503595D01*
X508576Y503623D01*
X508414Y503754D01*
X508255Y503890D01*
X508222Y503909D01*
X508192Y503933D01*
X508011Y504036D01*
X507832Y504144D01*
X507797Y504158D01*
X507764Y504177D01*
X507568Y504250D01*
X507374Y504327D01*
X507337Y504336D01*
X507301Y504349D01*
X507097Y504389D01*
X506893Y504434D01*
X506854Y504436D01*
X506817Y504443D01*
X506609Y504450D01*
X506400Y504462D01*
X506362Y504458D01*
X506324Y504459D01*
X506118Y504432D01*
X505909Y504410D01*
X505873Y504399D01*
X505835Y504394D01*
X505635Y504334D01*
X505434Y504279D01*
X505399Y504263D01*
X505362Y504252D01*
X505175Y504160D01*
X504985Y504073D01*
X504954Y504052D01*
X504919Y504035D01*
X504749Y503914D01*
X504576Y503798D01*
X504548Y503772D01*
X504517Y503750D01*
X504369Y503603D01*
X504216Y503460D01*
X504193Y503430D01*
X504166Y503403D01*
X504043Y503234D01*
X503916Y503069D01*
X503898Y503035D01*
X503876Y503004D01*
X503782Y502818D01*
X503683Y502634D01*
X503671Y502598D01*
X503653Y502564D01*
X503590Y502364D01*
X503523Y502167D01*
X503517Y502130D01*
X503505Y502093D01*
X503495Y502000D01*
X503440Y501681D01*
X503439Y501509D01*
X503429Y501415D01*
X503429Y499345D01*
X503432Y499307D01*
X503430Y499269D01*
X503452Y499061D01*
X503469Y498853D01*
X503478Y498816D01*
X503482Y498778D01*
X503537Y498577D01*
X503587Y498374D01*
X503602Y498339D01*
X503613Y498302D01*
X503700Y498112D01*
X503782Y497921D01*
X503802Y497889D01*
X503818Y497854D01*
X503935Y497680D01*
X504047Y497505D01*
X504072Y497476D01*
X504094Y497445D01*
X504237Y497293D01*
X504376Y497137D01*
X504405Y497113D01*
X504431Y497085D01*
X504597Y496958D01*
X504760Y496827D01*
X504793Y496808D01*
X504823Y496785D01*
X505007Y496686D01*
X505188Y496583D01*
X505224Y496570D01*
X505258Y496552D01*
X505455Y496484D01*
X505651Y496411D01*
X505688Y496404D01*
X505724Y496392D01*
X505931Y496356D01*
X506135Y496317D01*
X506173Y496315D01*
X506211Y496309D01*
X506420Y496308D01*
X506628Y496301D01*
X506666Y496306D01*
G37*
D10*
X518160Y309880D03*
X518160Y335280D03*
X518160Y360680D03*
X518160Y386080D03*
X518160Y411480D03*
X518160Y436880D03*
X518160Y487680D03*
X518160Y513080D03*
X518160Y538480D03*
X518160Y563880D03*
X518160Y589280D03*
X518160Y614680D03*
X35560Y614680D03*
X35560Y589280D03*
X35560Y563880D03*
X35560Y538480D03*
X35560Y513080D03*
X35560Y487680D03*
X35560Y462280D03*
X35560Y436880D03*
X35560Y398780D03*
X35560Y373380D03*
X35560Y347980D03*
X35560Y322580D03*
X35560Y297180D03*
X35560Y271780D03*
X35560Y246380D03*
X35560Y220980D03*
X35560Y195580D03*
X35560Y170180D03*
X518160Y284480D03*
X518160Y259080D03*
D11*
X147320Y350520D03*
X261620Y350520D03*
X360680Y350520D03*
X459740Y350520D03*
D12*
X261620Y350520D02*
X147320Y350520D01*
X261620Y350520D02*
X360680Y350520D01*
X459740Y350520D01*
D11*
X147320Y477520D03*
X259080Y477520D03*
X360680Y477520D03*
X459740Y477520D03*
D12*
X259080Y477520D02*
X147320Y477520D01*
X259080Y477520D02*
X360680Y477520D01*
X459740Y477520D01*
D11*
X459740Y223520D03*
X149860Y223520D03*
D12*
X152400Y220980D01*
D11*
X259080Y223520D03*
X363220Y223520D03*
D12*
X259080Y223520D02*
X149860Y223520D01*
X259080Y223520D02*
X363220Y223520D01*
X459740Y223520D01*
D11*
X274320Y541020D03*
D12*
X38100Y541020D02*
X35560Y538480D01*
X38100Y541020D02*
X274320Y541020D01*
D11*
X375920Y543560D03*
D12*
X358140Y513080D02*
X35560Y513080D01*
X375920Y530860D02*
X375920Y543560D01*
X375920Y530860D02*
X358140Y513080D01*
D11*
X35560Y665480D03*
D12*
X5080Y314960D02*
X22860Y297180D01*
X5080Y314960D02*
X5080Y642620D01*
X27940Y665480D02*
X35560Y665480D01*
X27940Y665480D02*
X5080Y642620D01*
X22860Y297180D02*
X35560Y297180D01*
D11*
X515620Y647700D03*
D12*
X127000Y414020D02*
X35560Y322580D01*
X495300Y627380D02*
X515620Y647700D01*
X441960Y414020D02*
X127000Y414020D01*
X441960Y414020D02*
X495300Y467360D01*
X495300Y627380D01*
M02*
