M48
;GenerationSoftware,Autodesk,EAGLE,9.1.3*%
;CreationDate,2018-12-14T10:31:56Z*%
FMAT,2
ICI,OFF
METRIC,TZ,000.000
T2C1.000
T1C1.016
%
G90
M71
T1
X3556Y51308
X3556Y48768
X3556Y46228
X3556Y43688
X3556Y39878
X3556Y37338
X51816Y53848
X3556Y34798
X3556Y32258
X3556Y29718
X3556Y24638
X3556Y22098
X3556Y19558
X3556Y17018
X51816Y28448
X51816Y25908
X51816Y30988
X51816Y33528
X51816Y36068
X51816Y38608
X51816Y41148
X51816Y43688
X51816Y48768
X51816Y51308
X3556Y27178
X51816Y56388
X51816Y58928
X51816Y61468
X3556Y61468
X3556Y58928
X3556Y56388
X3556Y53848
T2
X14732Y35052
X26162Y35052
X36068Y35052
X45974Y35052
X14732Y47752
X25908Y47752
X45974Y47752
X45974Y22352
X14986Y22352
X25908Y22352
X36322Y22352
X27432Y54102
X37592Y54356
X3556Y66548
X51562Y64770
X36068Y47752
M30