G04 EAGLE Gerber X2 export*
%TF.Part,Single*%
%TF.FileFunction,Soldermask,Bot,1*%
%TF.FilePolarity,Negative*%
%TF.GenerationSoftware,Autodesk,EAGLE,9.1.3*%
%TF.CreationDate,2018-12-14T10:31:57Z*%
G75*
%MOMM*%
%FSLAX34Y34*%
%LPD*%
%AMOC8*
5,1,8,0,0,1.08239X$1,22.5*%
G01*
%ADD10C,2.082800*%
%ADD11C,1.703200*%


D10*
X518160Y309880D03*
X518160Y335280D03*
X518160Y360680D03*
X518160Y386080D03*
X518160Y411480D03*
X518160Y436880D03*
X518160Y487680D03*
X518160Y513080D03*
X518160Y538480D03*
X518160Y563880D03*
X518160Y589280D03*
X518160Y614680D03*
X35560Y614680D03*
X35560Y589280D03*
X35560Y563880D03*
X35560Y538480D03*
X35560Y513080D03*
X35560Y487680D03*
X35560Y462280D03*
X35560Y436880D03*
X35560Y398780D03*
X35560Y373380D03*
X35560Y347980D03*
X35560Y322580D03*
X35560Y297180D03*
X35560Y271780D03*
X35560Y246380D03*
X35560Y220980D03*
X35560Y195580D03*
X35560Y170180D03*
X518160Y284480D03*
X518160Y259080D03*
D11*
X147320Y350520D03*
X261620Y350520D03*
X360680Y350520D03*
X459740Y350520D03*
X147320Y477520D03*
X259080Y477520D03*
X360680Y477520D03*
X459740Y477520D03*
X459740Y223520D03*
X149860Y223520D03*
X259080Y223520D03*
X363220Y223520D03*
X274320Y541020D03*
X375920Y543560D03*
X35560Y665480D03*
X515620Y647700D03*
M02*
