G04 EAGLE Gerber X2 export*
%TF.Part,Single*%
%TF.FileFunction,Soldermask,Top,1*%
%TF.FilePolarity,Negative*%
%TF.GenerationSoftware,Autodesk,EAGLE,9.1.3*%
%TF.CreationDate,2018-12-14T10:31:57Z*%
G75*
%MOMM*%
%FSLAX34Y34*%
%LPD*%
%AMOC8*
5,1,8,0,0,1.08239X$1,22.5*%
G01*
%ADD10R,1.503200X1.803200*%
%ADD11R,1.700000X2.800000*%
%ADD12C,2.082800*%
%ADD13R,0.903200X1.303200*%
%ADD14C,1.703200*%


D10*
X121260Y477520D03*
X102260Y477520D03*
X235560Y223520D03*
X216560Y223520D03*
X337160Y223520D03*
X318160Y223520D03*
X438760Y223520D03*
X419760Y223520D03*
X126340Y106680D03*
X107340Y106680D03*
X235560Y106680D03*
X216560Y106680D03*
X337160Y106680D03*
X318160Y106680D03*
X438760Y109220D03*
X419760Y109220D03*
X235560Y477520D03*
X216560Y477520D03*
X337160Y477520D03*
X318160Y477520D03*
X438760Y477520D03*
X419760Y477520D03*
X121260Y350520D03*
X102260Y350520D03*
X235560Y350520D03*
X216560Y350520D03*
X337160Y350520D03*
X318160Y350520D03*
X438760Y350520D03*
X419760Y350520D03*
X121260Y223520D03*
X102260Y223520D03*
D11*
X94760Y541020D03*
X128760Y541020D03*
X209060Y541020D03*
X243060Y541020D03*
X310660Y541020D03*
X344660Y541020D03*
X412260Y541020D03*
X446260Y541020D03*
X92220Y414020D03*
X126220Y414020D03*
X209060Y414020D03*
X243060Y414020D03*
X310660Y414020D03*
X344660Y414020D03*
X412260Y414020D03*
X446260Y414020D03*
X94760Y287020D03*
X128760Y287020D03*
X209060Y287020D03*
X243060Y287020D03*
X310660Y287020D03*
X344660Y287020D03*
X412260Y287020D03*
X446260Y287020D03*
X94760Y167640D03*
X128760Y167640D03*
X209060Y170180D03*
X243060Y170180D03*
X308120Y167640D03*
X342120Y167640D03*
X409720Y167640D03*
X443720Y167640D03*
D12*
X518160Y309880D03*
X518160Y335280D03*
X518160Y360680D03*
X518160Y386080D03*
X518160Y411480D03*
X518160Y436880D03*
X518160Y487680D03*
X518160Y513080D03*
X518160Y538480D03*
X518160Y563880D03*
X518160Y589280D03*
X518160Y614680D03*
X35560Y614680D03*
X35560Y589280D03*
X35560Y563880D03*
X35560Y538480D03*
X35560Y513080D03*
X35560Y487680D03*
X35560Y462280D03*
X35560Y436880D03*
X35560Y398780D03*
X35560Y373380D03*
X35560Y347980D03*
X35560Y322580D03*
X35560Y297180D03*
X35560Y271780D03*
X35560Y246380D03*
X35560Y220980D03*
X35560Y195580D03*
X35560Y170180D03*
X518160Y284480D03*
X518160Y259080D03*
D13*
X202590Y644880D03*
X202590Y609880D03*
X158090Y609880D03*
X158090Y644880D03*
X358750Y609880D03*
X358750Y644880D03*
X403250Y644880D03*
X403250Y609880D03*
D14*
X147320Y350520D03*
X261620Y350520D03*
X360680Y350520D03*
X459740Y350520D03*
X147320Y477520D03*
X259080Y477520D03*
X360680Y477520D03*
X459740Y477520D03*
X459740Y223520D03*
X149860Y223520D03*
X259080Y223520D03*
X363220Y223520D03*
X274320Y541020D03*
X375920Y543560D03*
X35560Y665480D03*
X515620Y647700D03*
M02*
